<svg width="267" height="85" viewBox="0 0 267 85" fill="none" xmlns="http://www.w3.org/2000/svg">
<path d="M183.692 6.69254L181.195 4.67047C181.166 4.64588 181.146 4.61205 181.14 4.57508C181.133 4.53811 181.14 4.50041 181.159 4.46878C183.234 0.952129 185.533 -0.925139 189.783 0.455662C191.338 0.957302 193.72 3.48619 195.509 0.372918C195.528 0.340302 195.554 0.312128 195.585 0.290357C195.615 0.268586 195.651 0.253739 195.688 0.246849C195.725 0.239959 195.763 0.241191 195.8 0.250459C195.836 0.259727 195.87 0.276807 195.9 0.300515L198.23 2.1933C198.258 2.21558 198.277 2.24677 198.285 2.28162C198.292 2.31647 198.288 2.35285 198.271 2.38465C195.707 7.23555 192.207 7.71133 187.603 5.11005C186.164 4.29639 184.933 4.8101 183.911 6.65117C183.9 6.6695 183.886 6.68535 183.869 6.69762C183.851 6.7099 183.832 6.7183 183.811 6.72223C183.79 6.72617 183.769 6.72555 183.748 6.72043C183.728 6.7153 183.709 6.70578 183.692 6.69254Z" fill="white"/>
<path d="M252.022 10.1471C252.04 10.05 252.025 9.94955 251.98 9.86093C251.935 9.7723 251.862 9.70032 251.772 9.65583C228.08 -1.83016 204.466 22.2951 216.096 45.4843C216.159 45.6049 216.559 46.3393 217.298 47.6873C217.362 47.8043 217.382 47.9416 217.355 48.0752L217.329 48.189C217.307 48.2868 217.256 48.3757 217.183 48.4441C217.109 48.5126 217.016 48.5573 216.917 48.5724C216.817 48.5875 216.715 48.5723 216.625 48.5288C216.534 48.4853 216.459 48.4155 216.408 48.3286C215.815 47.608 215.295 46.8116 214.848 45.9394C212.615 41.547 211.571 36.9891 211.717 32.2658C212.148 18.2302 223.232 6.69771 237.224 5.52894C242.394 5.09798 247.471 6.11333 252.453 8.57498C252.561 8.62836 252.684 8.64754 252.804 8.63001C252.925 8.61248 253.038 8.55906 253.13 8.47672C255.205 6.58911 258.966 7.29244 259.917 9.94544C260.562 11.7486 260.268 13.2811 259.033 14.5429C257.478 16.1306 254.726 16.1409 253.104 14.6619C251.991 13.6483 251.63 12.1433 252.022 10.1471Z" fill="white"/>
<path d="M13.5882 9.09731H1.16743C1.00656 9.09731 0.876153 9.22697 0.876153 9.38691V57.4098C0.876153 57.5698 1.00656 57.6994 1.16743 57.6994H13.5882C13.749 57.6994 13.8795 57.5698 13.8795 57.4098V9.38691C13.8795 9.22697 13.749 9.09731 13.5882 9.09731Z" fill="white"/>
<path d="M42.2734 33.3622C42.2908 33.3622 42.3099 33.3604 42.3307 33.357C42.3533 33.352 42.3737 33.3443 42.39 33.3343C42.4063 33.3244 42.4181 33.3127 42.4243 33.3001L55.6252 9.40243C55.6787 9.30403 55.7581 9.22181 55.8552 9.16446C55.9522 9.10712 56.0633 9.07677 56.1766 9.07662H65.591C65.6668 9.07662 65.7396 9.10713 65.7932 9.16144C65.8469 9.21575 65.877 9.28942 65.877 9.36623V57.2754C65.877 57.3138 65.8617 57.3506 65.8344 57.3778C65.8071 57.4049 65.77 57.4202 65.7314 57.4202H53.7007C53.6618 57.4202 53.6233 57.4124 53.5873 57.3973C53.5513 57.3823 53.5186 57.3602 53.4911 57.3323C53.4636 57.3045 53.4417 57.2714 53.4268 57.235C53.4119 57.1986 53.4043 57.1596 53.4043 57.1202V36.5634C53.4036 36.5357 53.3941 36.509 53.3771 36.4871C53.36 36.4652 53.3364 36.4493 53.3096 36.4418C53.2829 36.4343 53.2544 36.4355 53.2283 36.4453C53.2023 36.4551 53.1801 36.4729 53.165 36.4961L43.3605 53.014C43.3163 53.0892 43.2558 53.154 43.183 53.204C43.1103 53.254 43.0271 53.288 42.9392 53.3036C42.9357 53.3036 42.719 53.3036 42.289 53.3036C41.8556 53.3036 41.6372 53.3036 41.6337 53.3036C41.5458 53.288 41.4626 53.254 41.3899 53.204C41.3171 53.154 41.2566 53.0892 41.2124 53.014L31.3871 36.5116C31.372 36.4884 31.3498 36.4706 31.3238 36.4608C31.2977 36.451 31.2692 36.4498 31.2425 36.4573C31.2157 36.4649 31.192 36.4807 31.175 36.5026C31.158 36.5245 31.1484 36.5512 31.1478 36.5789L31.1738 57.1357C31.1738 57.1751 31.1662 57.2141 31.1513 57.2505C31.1364 57.2869 31.1145 57.32 31.087 57.3478C31.0595 57.3757 31.0268 57.3978 30.9908 57.4129C30.9548 57.4279 30.9163 57.4357 30.8774 57.4357L18.8467 57.4512C18.8081 57.4512 18.771 57.436 18.7437 57.4088C18.7164 57.3816 18.7011 57.3448 18.7011 57.3064L18.6387 9.39725C18.6387 9.35922 18.6461 9.32156 18.6604 9.28642C18.6748 9.25128 18.6959 9.21936 18.7224 9.19246C18.749 9.16557 18.7805 9.14424 18.8153 9.12969C18.85 9.11514 18.8872 9.10765 18.9247 9.10765L28.3391 9.09213C28.4524 9.09228 28.5635 9.12263 28.6605 9.17998C28.7576 9.23733 28.837 9.31954 28.8905 9.41794L42.1226 33.3001C42.1288 33.3127 42.1406 33.3244 42.1569 33.3343C42.1732 33.3443 42.1936 33.352 42.2162 33.357C42.237 33.3604 42.2561 33.3622 42.2734 33.3622Z" fill="white"/>
<path d="M83.3951 27.4459H98.6817C98.7397 27.4459 98.7952 27.4688 98.8362 27.5096C98.8772 27.5503 98.9002 27.6055 98.9002 27.6631V38.3424C98.9002 38.4 98.8772 38.4552 98.8362 38.496C98.7952 38.5367 98.7397 38.5596 98.6817 38.5596H83.3951C83.3371 38.5596 83.2816 38.5825 83.2406 38.6232C83.1996 38.6639 83.1766 38.7192 83.1766 38.7768V45.9704C83.1766 46.028 83.1996 46.0832 83.2406 46.124C83.2816 46.1647 83.3371 46.1876 83.3951 46.1876H98.6869C98.7449 46.1876 98.8004 46.2105 98.8414 46.2512C98.8824 46.2919 98.9054 46.3472 98.9054 46.4048V57.2133C98.9054 57.2709 98.8824 57.3262 98.8414 57.3669C98.8004 57.4076 98.7449 57.4305 98.6869 57.4305H70.7923C70.7636 57.4305 70.7352 57.4249 70.7087 57.414C70.6822 57.4031 70.6581 57.3871 70.6378 57.3669C70.6175 57.3467 70.6014 57.3228 70.5905 57.2964C70.5795 57.2701 70.5738 57.2418 70.5738 57.2133V9.30934C70.5738 9.28081 70.5795 9.25257 70.5905 9.22622C70.6014 9.19986 70.6175 9.17592 70.6378 9.15575C70.6581 9.13558 70.6822 9.11958 70.7087 9.10867C70.7352 9.09775 70.7636 9.09213 70.7923 9.09213H98.6921C98.7501 9.09213 98.8057 9.11502 98.8466 9.15575C98.8876 9.19649 98.9106 9.25173 98.9106 9.30934V19.9834C98.9106 20.041 98.8876 20.0963 98.8466 20.137C98.8057 20.1777 98.7501 20.2006 98.6921 20.2006H83.3951C83.3371 20.2006 83.2816 20.2235 83.2406 20.2642C83.1996 20.305 83.1766 20.3602 83.1766 20.4178V27.2287C83.1766 27.2863 83.1996 27.3416 83.2406 27.3823C83.2816 27.423 83.3371 27.4459 83.3951 27.4459Z" fill="white"/>
<path d="M131.195 35.8549C134.43 36.2065 135.289 38.8595 135.304 41.6728C135.342 47.5787 135.344 52.783 135.309 57.2857C135.309 57.3241 135.294 57.361 135.267 57.3881C135.239 57.4153 135.202 57.4305 135.164 57.4305H122.909C122.856 57.4305 122.804 57.4093 122.766 57.3714C122.728 57.3336 122.707 57.2823 122.707 57.2288V41.4608C122.707 41.3771 122.673 41.2969 122.614 41.2377C122.554 41.1786 122.473 41.1453 122.389 41.1453H116.018C115.934 41.1453 115.853 41.1786 115.793 41.2377C115.734 41.2969 115.7 41.3771 115.7 41.4608V57.1254C115.7 57.1655 115.692 57.2051 115.677 57.2422C115.661 57.2792 115.638 57.3128 115.609 57.3412C115.58 57.3695 115.546 57.392 115.508 57.4073C115.47 57.4226 115.429 57.4305 115.388 57.4305H103.399C103.314 57.4305 103.232 57.3967 103.171 57.3366C103.111 57.2765 103.077 57.1949 103.077 57.1099V9.25245C103.077 9.2314 103.081 9.21055 103.089 9.1911C103.097 9.17165 103.108 9.15398 103.123 9.13909C103.137 9.1242 103.154 9.11239 103.173 9.10434C103.192 9.09628 103.212 9.09213 103.233 9.09213C111.163 9.08524 119.432 9.08524 128.038 9.09213C128.305 9.09558 129.002 9.21798 130.129 9.45932C133.967 10.2868 135.289 13.4052 135.315 16.9736C135.342 21.2073 135.339 25.4308 135.304 29.6438C135.276 32.6226 133.895 34.5947 131.159 35.5601C131.126 35.5708 131.099 35.5923 131.08 35.6209C131.062 35.6495 131.055 35.6837 131.059 35.7179C131.063 35.752 131.079 35.7841 131.104 35.809C131.128 35.8339 131.161 35.85 131.195 35.8549ZM122.707 20.3971C122.707 20.3436 122.685 20.2923 122.647 20.2545C122.609 20.2167 122.558 20.1954 122.504 20.1954H115.898C115.844 20.1954 115.793 20.2167 115.755 20.2545C115.717 20.2923 115.695 20.3436 115.695 20.3971V29.83C115.695 29.8835 115.717 29.9348 115.755 29.9726C115.793 30.0105 115.844 30.0317 115.898 30.0317H122.504C122.558 30.0317 122.609 30.0105 122.647 29.9726C122.685 29.9348 122.707 29.8835 122.707 29.83V20.3971Z" fill="white"/>
<path d="M167.963 9.43863V20.0506C167.963 20.089 167.948 20.1259 167.921 20.153C167.893 20.1802 167.856 20.1954 167.818 20.1954H153.088C152.998 20.1954 152.912 20.2303 152.848 20.2924C152.785 20.3544 152.749 20.4386 152.749 20.5264V27.1253C152.749 27.1699 152.758 27.214 152.776 27.2551C152.793 27.2963 152.818 27.3336 152.85 27.3648C152.882 27.3961 152.92 27.4208 152.962 27.4374C153.003 27.4539 153.048 27.4621 153.093 27.4614C158.513 27.4063 161.798 27.4649 162.949 27.6373C168.577 28.4906 169.186 32.302 169.165 37.5925C169.13 46.2497 169.111 50.592 169.108 50.6196C168.967 55.998 165.04 57.4047 160.291 57.4254C158.485 57.4322 151.822 57.434 140.303 57.4305C140.26 57.4305 140.219 57.4136 140.189 57.3836C140.158 57.3535 140.141 57.3127 140.141 57.2702V46.5031C140.141 46.463 140.15 46.4233 140.165 46.3863C140.181 46.3493 140.204 46.3156 140.233 46.2873C140.262 46.259 140.296 46.2365 140.334 46.2212C140.372 46.2058 140.413 46.1979 140.454 46.1979H156.214C156.295 46.1979 156.373 46.1658 156.431 46.1086C156.488 46.0514 156.52 45.9737 156.52 45.8928V39.0147C156.52 38.9642 156.51 38.9143 156.491 38.8678C156.471 38.8213 156.442 38.7792 156.406 38.744C156.369 38.7088 156.326 38.6812 156.279 38.6629C156.232 38.6445 156.181 38.6358 156.13 38.6371C152.215 38.7751 148.984 38.7182 146.435 38.4665C143.654 38.1941 141.79 37.0736 140.844 35.105C140.306 33.981 140.06 31.7745 140.105 28.4854C140.178 23.1242 140.188 19.8093 140.136 18.5405C139.913 13.2449 141.411 9.3714 147.22 9.16454C149.828 9.07145 156.63 9.05076 167.625 9.10248C167.715 9.10248 167.801 9.13789 167.864 9.20093C167.928 9.26397 167.963 9.34947 167.963 9.43863Z" fill="white"/>
<path d="M206.448 9.44897V57.1616C206.448 57.2329 206.419 57.3013 206.369 57.3518C206.318 57.4022 206.249 57.4305 206.177 57.4305H194.152C194.112 57.4305 194.072 57.4226 194.035 57.4073C193.997 57.392 193.963 57.3695 193.935 57.3412C193.906 57.3128 193.884 57.2792 193.868 57.2422C193.853 57.2051 193.845 57.1655 193.845 57.1254V44.7034C193.845 44.6183 193.811 44.5368 193.751 44.4766C193.69 44.4165 193.608 44.3827 193.523 44.3827H186.355C186.271 44.3827 186.19 44.416 186.131 44.4751C186.071 44.5343 186.038 44.6145 186.038 44.6982V57.2702C186.038 57.3127 186.021 57.3535 185.991 57.3836C185.96 57.4136 185.919 57.4305 185.877 57.4305H173.451C173.442 57.4305 173.432 57.4296 173.424 57.4279C173.42 57.4271 173.416 57.4262 173.412 57.4251C173.407 57.4237 173.402 57.4219 173.397 57.4199C173.38 57.4129 173.364 57.4026 173.351 57.3896C173.338 57.3767 173.328 57.3613 173.321 57.3443C173.314 57.3274 173.31 57.3092 173.31 57.2909C173.286 44.2483 173.286 30.9815 173.31 17.4907C173.321 11.1607 176.514 8.93182 182.548 9.08179C182.874 9.09213 183.644 9.09558 184.857 9.09213C195.416 9.07834 202.493 9.07834 206.089 9.09213C206.136 9.09213 206.183 9.10136 206.226 9.1193C206.27 9.13723 206.309 9.16351 206.343 9.19665C206.376 9.22978 206.403 9.26912 206.421 9.31241C206.439 9.35571 206.448 9.40211 206.448 9.44897ZM193.845 20.454C193.845 20.3854 193.818 20.3197 193.769 20.2712C193.72 20.2227 193.654 20.1954 193.585 20.1954H186.303C186.234 20.1954 186.168 20.2227 186.119 20.2712C186.07 20.3197 186.043 20.3854 186.043 20.454V33.1346C186.043 33.2032 186.07 33.269 186.119 33.3175C186.168 33.366 186.234 33.3932 186.303 33.3932H193.585C193.654 33.3932 193.72 33.366 193.769 33.3175C193.818 33.269 193.845 33.2032 193.845 33.1346V20.454Z" fill="white"/>
<path d="M228.21 16.927C228.188 16.927 228.167 16.9202 228.149 16.9075C228.132 16.8948 228.118 16.8769 228.111 16.8563C228.105 16.8357 228.104 16.8135 228.111 16.7927C228.117 16.772 228.13 16.7539 228.148 16.7408C235.778 11.3262 245.593 11.8124 252.792 17.7855C252.849 17.832 252.893 17.8922 252.919 17.9603C252.946 18.0285 252.955 18.1024 252.945 18.1749C252.935 18.2475 252.907 18.3163 252.863 18.3749C252.819 18.4335 252.76 18.4798 252.693 18.5095L251.793 18.9077C251.753 18.9251 251.717 18.9501 251.687 18.9815C251.657 19.0128 251.634 19.0498 251.618 19.0902C251.603 19.1307 251.595 19.1738 251.597 19.217C251.598 19.2603 251.608 19.3028 251.626 19.3421C251.952 20.0558 252.294 20.3333 252.651 20.1747C252.703 20.152 252.76 20.1417 252.817 20.1447C252.874 20.1476 252.929 20.1637 252.979 20.1918C253.029 20.2198 253.072 20.259 253.104 20.3063C253.137 20.3535 253.158 20.4076 253.166 20.4644L253.213 20.9039C253.219 20.9536 253.212 21.0039 253.193 21.0503C253.174 21.0967 253.144 21.1377 253.105 21.1696C253.067 21.2015 253.021 21.2232 252.971 21.2328C252.922 21.2424 252.871 21.2396 252.823 21.2246L252.157 21.0177C252.045 20.9828 251.924 20.9874 251.815 21.0308C251.706 21.0741 251.616 21.1535 251.559 21.2556C251.202 21.9038 250.654 22.314 249.915 22.4864C249.882 22.4944 249.85 22.5102 249.824 22.5325C249.798 22.5548 249.777 22.5831 249.764 22.6149C249.751 22.6467 249.745 22.6812 249.748 22.7155C249.751 22.7498 249.762 22.783 249.78 22.8122C249.95 23.0777 250.044 23.2673 250.061 23.3811C250.068 23.4383 250.064 23.4964 250.047 23.5516C250.03 23.6067 250.002 23.6575 249.964 23.7007C249.926 23.7438 249.879 23.7782 249.827 23.8016C249.774 23.825 249.718 23.8368 249.66 23.8362C249.192 23.8327 248.854 23.8293 248.646 23.8259C248.459 23.8226 248.281 23.883 248.139 23.9979C247.996 24.1128 247.898 24.2761 247.858 24.4629C247.818 24.6498 247.839 24.8502 247.917 25.0338C247.996 25.2174 248.127 25.3743 248.292 25.4807C248.636 25.7014 249.149 25.7324 249.832 25.5738C249.925 25.5535 250.011 25.5087 250.08 25.4441C250.15 25.3795 250.201 25.2975 250.227 25.2067C250.501 24.3309 251.177 23.7845 252.256 23.5673C252.334 23.5516 252.416 23.5578 252.492 23.5851C252.568 23.6124 252.636 23.6599 252.688 23.7224C252.989 24.0948 253.428 24.4051 254.004 24.6533C254.066 24.68 254.117 24.7294 254.144 24.791C254.171 24.8527 254.173 24.9219 254.149 24.9843C254.104 25.1084 254 25.1911 253.837 25.2325C253.816 25.238 253.796 25.2476 253.779 25.2605C253.762 25.2735 253.748 25.2896 253.737 25.308C253.726 25.3263 253.72 25.3465 253.717 25.3673C253.715 25.3881 253.717 25.4091 253.723 25.429V25.4394C253.732 25.4725 253.755 25.5006 253.785 25.518C253.815 25.5353 253.85 25.5405 253.884 25.5325C254.362 25.4118 254.572 25.1653 254.513 24.7929C254.507 24.752 254.492 24.7127 254.47 24.6772C254.447 24.6417 254.418 24.6107 254.383 24.5861L253.364 23.8931C253.281 23.8366 253.219 23.7535 253.19 23.6577C253.161 23.5618 253.166 23.4589 253.203 23.3661C253.241 23.2732 253.309 23.1958 253.397 23.1468C253.485 23.0978 253.587 23.0801 253.686 23.0967C254.567 23.2484 255.132 23.8862 255.382 25.0101C255.399 25.0789 255.438 25.1403 255.493 25.1851C255.548 25.23 255.616 25.2558 255.687 25.2587C255.758 25.2616 255.828 25.2415 255.886 25.2013C255.945 25.1611 255.989 25.1031 256.011 25.036L256.193 24.4413C256.21 24.3857 256.244 24.3366 256.29 24.3007C256.336 24.2647 256.392 24.2436 256.45 24.2403C256.509 24.2369 256.567 24.2514 256.616 24.2818C256.666 24.3121 256.706 24.357 256.729 24.4102L257.166 25.3773C257.201 25.4574 257.26 25.5245 257.337 25.5691C257.414 25.6137 257.503 25.6334 257.592 25.6256C258.442 25.5463 258.841 26.06 258.789 27.1667C258.784 27.2429 258.753 27.3151 258.701 27.37C258.648 27.425 258.578 27.4593 258.503 27.4666C257.618 27.5632 256.81 27.3408 256.079 26.7995C256.004 26.7455 255.916 26.7139 255.823 26.7084C255.731 26.7029 255.639 26.7237 255.559 26.7685C255.396 26.8581 255.273 27.0167 255.189 27.2442C255.168 27.3005 255.126 27.3467 255.072 27.3735C255.018 27.4004 254.956 27.4059 254.898 27.389L252.979 26.7995C252.877 26.7677 252.792 26.6966 252.742 26.6017C252.692 26.5068 252.682 26.3957 252.714 26.2927L252.776 26.0858C252.792 26.0343 252.794 25.9797 252.784 25.9269C252.773 25.8741 252.75 25.8247 252.715 25.7832C252.681 25.7417 252.636 25.7094 252.586 25.6891C252.536 25.6688 252.481 25.6612 252.428 25.6669C250.434 25.9014 249 26.1341 248.126 26.3651C247.686 26.4823 247.495 26.8012 247.554 27.3218C247.56 27.3847 247.552 27.4481 247.531 27.5072C247.509 27.5663 247.474 27.6196 247.429 27.6631L245.801 29.287C245.767 29.3209 245.74 29.3615 245.723 29.4061C245.706 29.4507 245.699 29.4982 245.702 29.5456C245.723 29.9317 245.671 30.6075 245.546 31.5728C245.421 32.5606 246.28 33.4604 247.055 34.1844C247.788 34.8723 249.66 34.231 250.555 34.1327C251.34 34.0448 251.621 34.6602 252.339 34.5723C252.398 34.5654 252.458 34.5721 252.515 34.5919C252.571 34.6117 252.622 34.6441 252.664 34.6866C252.705 34.729 252.737 34.7804 252.755 34.8368C252.774 34.8932 252.779 34.9531 252.771 35.0119L252.646 35.9169C252.636 36.0152 252.65 36.113 252.688 36.2014L253.801 38.6733C253.831 38.7398 253.834 38.8154 253.811 38.8854L253.286 40.5765C253.261 40.6518 253.261 40.733 253.285 40.809C253.309 40.8849 253.357 40.9518 253.421 41.0005L253.53 41.0781C253.683 41.1919 253.802 41.3454 253.873 41.5216C253.943 41.6978 253.963 41.8898 253.931 42.0762C253.837 42.5934 253.967 43.1036 254.321 43.607C254.605 44.0104 254.68 44.362 254.544 44.662C254.413 44.955 254.543 45.1843 254.935 45.3498C254.976 45.3677 255.013 45.395 255.042 45.4294C255.071 45.4639 255.091 45.5045 255.101 45.5479C255.111 45.5913 255.111 45.6363 255.1 45.6791C255.089 45.722 255.068 45.7616 255.039 45.7946C249.759 51.6953 241.718 54.1673 234.067 51.9021C227.881 50.0749 223.555 46.0928 221.09 39.9559C219.314 35.5291 219.328 30.6988 221.131 25.4652C221.146 25.4241 221.173 25.3881 221.208 25.3616C221.243 25.3352 221.285 25.3193 221.329 25.3161C221.373 25.3128 221.417 25.3222 221.456 25.3431C221.494 25.3641 221.526 25.3957 221.547 25.4342C221.589 25.5135 221.606 25.6204 221.599 25.7548C221.591 25.8987 221.62 26.042 221.683 26.1714C221.745 26.3008 221.84 26.412 221.958 26.4944C222.197 26.6668 222.315 26.9357 222.312 27.3011C222.307 28.2372 222.577 29.0336 223.326 29.5404C223.362 29.5672 223.407 29.5805 223.452 29.5778C223.497 29.5752 223.54 29.5568 223.573 29.526C223.606 29.4951 223.627 29.4538 223.632 29.4091C223.637 29.3645 223.627 29.3194 223.602 29.2818C223.137 28.5475 222.867 27.8028 222.79 27.0477C222.787 27.0151 222.79 26.9821 222.799 26.9506C222.808 26.9191 222.824 26.8898 222.845 26.8643C222.866 26.8388 222.891 26.8176 222.92 26.8021C222.949 26.7865 222.981 26.7769 223.014 26.7736L223.149 26.7633C223.194 26.7589 223.239 26.7722 223.274 26.8002C223.309 26.8283 223.331 26.8689 223.337 26.9133C223.503 28.2837 224.304 28.7233 224.517 30.0627C224.67 30.9902 225.398 31.4453 226.702 31.428C227.009 31.4249 227.307 31.5376 227.534 31.7435C228.101 32.2555 228.782 32.2037 229.38 32.8864C229.869 33.4415 230.476 33.7742 231.201 33.8845C231.287 33.897 231.368 33.9301 231.438 33.9809C231.508 34.0316 231.565 34.0985 231.603 34.1758C231.642 34.2531 231.661 34.3385 231.659 34.4247C231.656 34.5109 231.633 34.5953 231.591 34.6706L230.78 36.1445C230.627 36.4208 230.55 36.7323 230.559 37.0469C230.567 37.3614 230.659 37.6676 230.826 37.9338C231.485 38.9923 232.363 39.9455 233.458 40.7937C233.547 40.8623 233.621 40.948 233.676 41.0458C233.73 41.1436 233.764 41.2513 233.776 41.3625L234.223 45.9394C234.23 45.9875 234.242 46.036 234.259 46.0842C234.54 46.784 234.684 47.4891 234.691 48.1993C234.694 48.4046 234.733 48.6059 234.805 48.7941C235.36 50.1766 236.25 51.0161 237.474 51.3126C237.536 51.3272 237.602 51.3192 237.659 51.2899C237.717 51.2607 237.761 51.2121 237.786 51.1529C237.81 51.0938 237.813 51.0279 237.793 50.9671C237.773 50.9063 237.731 50.8546 237.677 50.8213C237.202 50.5351 237.013 50.1335 237.11 49.6163C237.132 49.507 237.124 49.3935 237.086 49.288C237.049 49.1824 236.983 49.0886 236.896 49.0164C236.893 49.013 236.858 48.9889 236.792 48.944C236.699 48.8792 236.628 48.7863 236.591 48.6786C236.553 48.5708 236.551 48.4538 236.584 48.3441C236.661 48.0959 236.657 47.8528 236.574 47.6149C236.544 47.5307 236.549 47.4381 236.588 47.3569C236.627 47.2757 236.697 47.2124 236.782 47.1805C238.817 46.4289 239.863 44.9568 239.918 42.764C239.921 42.6661 239.961 42.5729 240.031 42.5036C240.101 42.4344 240.194 42.3943 240.293 42.3917C240.796 42.3744 241.177 42.2883 241.437 42.1331C241.619 42.0055 241.755 41.822 241.822 41.6108L242.878 38.2079C242.956 37.9535 242.93 37.6786 242.805 37.4433C242.681 37.2079 242.467 37.031 242.212 36.9512L239.689 36.1755C239.515 36.122 239.367 36.0079 239.273 35.8549C238.067 33.869 235.976 33.3105 233.458 32.483C233.279 32.4242 233.086 32.4236 232.906 32.4813C232.727 32.5389 232.57 32.6518 232.46 32.8036C231.971 33.4725 231.454 33.7018 230.91 33.4915C230.228 33.2277 230.218 32.6588 230.062 31.94C230.025 31.7694 229.945 31.611 229.83 31.4797C229.714 31.3485 229.567 31.2488 229.401 31.1901C229.148 31.1005 229.074 30.8454 229.178 30.4247C229.187 30.383 229.184 30.3395 229.169 30.2996C229.153 30.2596 229.126 30.225 229.091 30.2002C229.057 30.1754 229.015 30.1613 228.972 30.1599C228.929 30.1584 228.887 30.1696 228.85 30.192C228.195 30.6057 227.678 30.8092 227.3 30.8023C227.17 30.7993 227.043 30.7668 226.928 30.7072C226.812 30.6475 226.712 30.5623 226.635 30.4581C226.558 30.3538 226.505 30.2333 226.482 30.1056C226.458 29.978 226.464 29.8466 226.499 29.7214C227.04 27.8114 228.344 27.127 230.41 27.6683C230.615 27.7215 230.792 27.8465 230.91 28.02L231.206 28.444C231.225 28.4729 231.253 28.4947 231.286 28.5064C231.318 28.5182 231.354 28.5193 231.388 28.5097C231.421 28.5 231.452 28.48 231.474 28.4525C231.497 28.425 231.51 28.3913 231.513 28.3561L231.56 27.658C231.566 27.5591 231.594 27.4634 231.641 27.3776C231.687 27.2918 231.752 27.218 231.83 27.1615C233.162 26.1737 233.802 24.8084 235.419 23.7069C236.303 23.1036 236.86 22.495 237.089 21.8814C237.103 21.8424 237.126 21.807 237.155 21.7776C237.185 21.7482 237.22 21.7256 237.259 21.7113C237.298 21.697 237.34 21.6914 237.382 21.6949C237.423 21.6983 237.464 21.7108 237.5 21.7314C238.058 22.052 238.859 22.0331 239.903 21.6745C239.966 21.6523 240.022 21.6123 240.063 21.5593C240.104 21.5063 240.129 21.4426 240.135 21.3758C240.14 21.3091 240.126 21.2422 240.094 21.1832C240.062 21.1242 240.014 21.0757 239.955 21.0436C239.469 20.785 239.26 20.3902 239.325 19.8593C239.329 19.8224 239.322 19.7852 239.306 19.7517C239.29 19.7182 239.266 19.6897 239.235 19.6694C239.205 19.6491 239.169 19.6377 239.133 19.6366C239.096 19.6354 239.06 19.6445 239.029 19.6628C238.71 19.8524 238.413 19.9506 238.139 19.9575C238.103 19.9592 238.066 19.952 238.033 19.9367C238 19.9213 237.97 19.8982 237.948 19.8693C237.926 19.8404 237.91 19.8065 237.904 19.7706C237.897 19.7346 237.9 19.6976 237.911 19.6628L237.952 19.5386C237.978 19.4551 237.969 19.3648 237.927 19.2873C237.885 19.2099 237.814 19.1515 237.729 19.1249L236.85 18.856C236.737 18.8206 236.615 18.8291 236.508 18.8799C236.401 18.9307 236.317 19.0201 236.272 19.1301C236.109 19.5369 236.062 19.9334 236.132 20.3195C236.139 20.3577 236.137 20.3968 236.127 20.4343C236.117 20.4718 236.099 20.5067 236.075 20.5366C236.05 20.5666 236.019 20.5909 235.984 20.6079C235.949 20.6249 235.911 20.6341 235.872 20.635C235.279 20.6523 234.868 21.0125 234.639 21.7159C234.63 21.7462 234.615 21.7743 234.594 21.7985C234.573 21.8228 234.548 21.8427 234.518 21.8572C234.489 21.8716 234.458 21.8803 234.425 21.8827C234.392 21.885 234.359 21.8811 234.327 21.871C234.15 21.809 234.065 21.7003 234.072 21.5452C234.117 20.8729 233.859 20.5385 233.297 20.5419C233.123 20.5431 232.95 20.4909 232.803 20.3932C232.657 20.2954 232.544 20.1574 232.483 19.9999C232.422 19.8424 232.416 19.6739 232.465 19.5199C232.514 19.3658 232.616 19.2345 232.756 19.1456C233.169 18.8836 233.753 18.5733 234.509 18.2147C234.814 18.0699 235.043 18.1475 235.196 18.4475C235.221 18.4983 235.261 18.5406 235.311 18.5693C235.36 18.598 235.417 18.6118 235.474 18.6091C235.532 18.6063 235.587 18.5872 235.633 18.5539C235.68 18.5206 235.716 18.4747 235.736 18.4216C235.986 17.7803 236.681 17.327 237.822 17.0615C237.956 17.0308 238.095 17.0241 238.229 17.0418C238.363 17.0595 238.488 17.1013 238.595 17.1639C238.702 17.2266 238.788 17.3085 238.847 17.4036C238.906 17.4987 238.936 17.6045 238.935 17.7131C238.932 17.7752 238.708 17.8596 238.264 17.9665C238.22 17.9769 238.18 18.0006 238.149 18.0343C238.119 18.0681 238.099 18.1103 238.094 18.1554C238.088 18.2004 238.096 18.2461 238.118 18.2863C238.139 18.3265 238.172 18.3593 238.212 18.3802C238.854 18.7181 239.296 18.6974 239.539 18.3182C239.565 18.2764 239.6 18.2412 239.641 18.2152C239.683 18.1892 239.729 18.1731 239.778 18.1682L240.23 18.1216C240.271 18.1177 240.311 18.1045 240.346 18.0832C240.381 18.0619 240.41 18.033 240.432 17.9986C240.454 17.9642 240.468 17.9253 240.473 17.8848C240.478 17.8443 240.473 17.8033 240.459 17.7648C240.074 16.696 239.227 16.153 237.916 16.1358C236.876 16.1185 236.349 16.4374 236.335 17.0925C236.333 17.1511 236.318 17.2086 236.291 17.2605C236.263 17.3123 236.224 17.3571 236.176 17.3912C236.128 17.4253 236.073 17.4479 236.015 17.4571C235.956 17.4663 235.897 17.4619 235.841 17.4442L235.69 17.3976C235.61 17.3726 235.543 17.3173 235.504 17.2437C235.465 17.1701 235.457 17.0841 235.482 17.0046L235.658 16.4461C235.669 16.41 235.67 16.372 235.663 16.3353C235.655 16.2985 235.639 16.2643 235.615 16.2357C235.592 16.207 235.561 16.1848 235.527 16.1709C235.493 16.1571 235.456 16.1521 235.419 16.1565L234.878 16.2082C234.833 16.2128 234.79 16.2278 234.752 16.252C234.714 16.2761 234.682 16.3087 234.659 16.3471C234.636 16.3854 234.623 16.4285 234.62 16.4727C234.618 16.5168 234.626 16.5609 234.644 16.6012L234.748 16.8288C234.778 16.896 234.78 16.9723 234.754 17.041C234.728 17.1098 234.675 17.1655 234.608 17.1959L233.255 17.7907C233.185 17.822 233.11 17.8394 233.033 17.8418C232.956 17.8442 232.88 17.8315 232.809 17.8046C232.737 17.7777 232.672 17.737 232.616 17.6849C232.561 17.6328 232.516 17.5703 232.486 17.5011L232.288 17.0563C232.266 17.0078 232.258 16.9542 232.266 16.9015C232.273 16.8489 232.295 16.7993 232.329 16.7583C232.363 16.7174 232.408 16.6868 232.459 16.67C232.509 16.6532 232.564 16.6509 232.616 16.6633C233.177 16.7977 233.545 16.696 233.718 16.3581C233.73 16.3357 233.733 16.3101 233.728 16.2855C233.723 16.2609 233.71 16.2387 233.691 16.2221C233.672 16.2056 233.648 16.1958 233.623 16.1942C233.598 16.1926 233.573 16.1994 233.552 16.2133C233.039 16.5512 232.567 16.5667 232.137 16.2599C231.548 15.8358 231.184 15.6531 231.045 15.7117C230.858 15.7876 230.518 15.9789 230.025 16.2857C230.005 16.2987 229.989 16.3165 229.978 16.3376C229.966 16.3587 229.961 16.3823 229.961 16.4061C229.962 16.43 229.968 16.4533 229.98 16.4739C229.993 16.4945 230.01 16.5116 230.031 16.5236L231.664 17.4183C231.702 17.4398 231.732 17.4725 231.751 17.5119C231.77 17.5513 231.776 17.5955 231.769 17.6384C231.761 17.6814 231.741 17.721 231.71 17.752C231.679 17.7829 231.639 17.8036 231.596 17.8114C231.08 17.9044 230.651 17.8182 230.312 17.5528C230.219 17.4821 230.133 17.4209 230.058 17.3729C229.982 17.3249 229.92 17.2911 229.875 17.2735C229.237 17.0425 228.682 16.927 228.21 16.927ZM249.577 21.9434C249.709 21.9744 249.901 21.9796 250.155 21.9589C250.213 21.9539 250.269 21.9352 250.319 21.9042C250.368 21.8733 250.41 21.8311 250.44 21.7811C250.47 21.7311 250.487 21.6747 250.491 21.6166C250.495 21.5585 250.485 21.5004 250.461 21.4469L249.811 19.9937C249.787 19.9415 249.746 19.8986 249.694 19.8715C249.643 19.8444 249.583 19.8347 249.525 19.8438C249.3 19.8748 249.139 20.0006 249.041 20.2213C249.03 20.2464 249.025 20.2739 249.028 20.3013C249.03 20.3287 249.039 20.3551 249.054 20.3782C249.069 20.4013 249.089 20.4203 249.113 20.4335C249.138 20.4468 249.165 20.4538 249.192 20.454C249.217 20.454 249.249 20.4644 249.291 20.485C249.403 20.5422 249.494 20.6326 249.551 20.7436C249.725 21.0608 249.699 21.3159 249.473 21.509C249.438 21.5398 249.412 21.5796 249.398 21.624C249.383 21.6684 249.381 21.7157 249.392 21.7606C249.403 21.8055 249.426 21.8464 249.459 21.8786C249.491 21.9109 249.532 21.9333 249.577 21.9434ZM248.235 21.5866C248.429 21.5728 248.601 21.5073 248.75 21.3901C248.804 21.347 248.849 21.2939 248.882 21.2344C248.915 21.1749 248.935 21.1103 248.941 21.0448C248.948 20.9793 248.94 20.9145 248.919 20.8546C248.897 20.7946 248.863 20.7409 248.818 20.6971C248.658 20.5385 248.393 20.6988 248.022 21.178C247.992 21.2163 247.974 21.2622 247.969 21.3105C247.965 21.3587 247.975 21.4072 247.997 21.4502C248.02 21.4932 248.054 21.5289 248.096 21.553C248.138 21.5772 248.187 21.5888 248.235 21.5866ZM240.163 22.6467L239.481 22.2589C239.442 22.2352 239.395 22.2247 239.349 22.2289C239.303 22.2332 239.259 22.2519 239.225 22.2824C239.19 22.313 239.166 22.3537 239.156 22.3987C239.146 22.4438 239.151 22.4908 239.169 22.533C239.353 22.9639 239.676 23.0967 240.137 22.9312C240.166 22.9219 240.192 22.9042 240.211 22.8804C240.23 22.8567 240.242 22.8278 240.244 22.7975C240.247 22.7672 240.241 22.7367 240.226 22.7099C240.212 22.6831 240.19 22.6611 240.163 22.6467ZM238.046 23.138C237.9 23.0932 237.781 23.0829 237.687 23.107C237.662 23.1148 237.644 23.131 237.636 23.1538C237.628 23.1766 237.63 23.2049 237.642 23.2352C237.653 23.2655 237.674 23.2964 237.702 23.3242C237.729 23.352 237.762 23.3754 237.796 23.3914C237.886 23.4328 237.966 23.4449 238.035 23.4276C238.068 23.4203 238.097 23.4025 238.118 23.377C238.139 23.3515 238.151 23.3198 238.153 23.2868C238.154 23.2538 238.144 23.2213 238.125 23.1944C238.105 23.1675 238.078 23.1477 238.046 23.138Z" fill="white"/>
<path d="M226.91 56.8203C250.602 68.3218 274.237 44.1965 262.612 20.997C262.549 20.8729 262.149 20.1368 261.41 18.7888C261.346 18.6718 261.326 18.5345 261.353 18.4009L261.379 18.2871C261.401 18.1893 261.452 18.1004 261.525 18.032C261.599 17.9635 261.692 17.9188 261.791 17.9037C261.891 17.8886 261.993 17.9038 262.083 17.9473C262.174 17.9908 262.249 18.0606 262.3 18.1475C262.893 18.8681 263.413 19.6662 263.86 20.5419C266.093 24.9343 267.135 29.4939 266.986 34.2206C266.549 48.2614 255.455 59.7939 241.458 60.9575C236.288 61.385 231.211 60.3662 226.228 57.9011C226.12 57.8466 225.997 57.8268 225.875 57.8443C225.753 57.8619 225.639 57.916 225.547 57.9994C223.472 59.887 219.711 59.1837 218.759 56.5307C218.114 54.7241 218.411 53.1899 219.649 51.928C221.204 50.3403 223.955 50.33 225.578 51.8142C226.691 52.8278 227.052 54.3328 226.66 56.329C226.642 56.4261 226.657 56.5266 226.702 56.6152C226.747 56.7038 226.82 56.7758 226.91 56.8203Z" fill="white"/>
<path d="M249.473 21.509C249.699 21.3159 249.725 21.0608 249.551 20.7436C249.494 20.6326 249.403 20.5422 249.291 20.485C249.249 20.4644 249.217 20.454 249.192 20.454C249.165 20.4538 249.138 20.4468 249.113 20.4335C249.089 20.4203 249.069 20.4013 249.054 20.3782C249.039 20.3551 249.03 20.3287 249.028 20.3013C249.025 20.2739 249.03 20.2464 249.041 20.2213C249.139 20.0006 249.3 19.8748 249.525 19.8438C249.583 19.8347 249.643 19.8444 249.694 19.8715C249.746 19.8986 249.787 19.9415 249.811 19.9937L250.461 21.4469C250.485 21.5004 250.495 21.5585 250.491 21.6166C250.487 21.6747 250.47 21.7311 250.44 21.7811C250.41 21.8311 250.368 21.8733 250.319 21.9042C250.269 21.9352 250.213 21.9539 250.155 21.9589C249.901 21.9796 249.709 21.9744 249.577 21.9434C249.532 21.9333 249.491 21.9109 249.459 21.8786C249.426 21.8464 249.403 21.8055 249.392 21.7606C249.381 21.7157 249.383 21.6684 249.398 21.624C249.412 21.5796 249.438 21.5398 249.473 21.509Z" fill="white"/>
<path d="M248.235 21.5866C248.187 21.5888 248.138 21.5772 248.096 21.553C248.054 21.5289 248.02 21.4932 247.997 21.4502C247.975 21.4072 247.965 21.3587 247.969 21.3105C247.974 21.2622 247.992 21.2163 248.022 21.178C248.393 20.6988 248.658 20.5385 248.818 20.6971C248.863 20.7409 248.897 20.7946 248.919 20.8546C248.94 20.9145 248.948 20.9793 248.941 21.0448C248.935 21.1103 248.915 21.1749 248.882 21.2344C248.849 21.2939 248.804 21.347 248.75 21.3901C248.601 21.5073 248.429 21.5728 248.235 21.5866Z" fill="white"/>
<path d="M240.163 22.6467C240.19 22.6611 240.212 22.6831 240.226 22.7099C240.241 22.7367 240.247 22.7672 240.244 22.7975C240.242 22.8278 240.23 22.8567 240.211 22.8804C240.192 22.9042 240.166 22.9219 240.137 22.9312C239.676 23.0967 239.353 22.9639 239.169 22.533C239.151 22.4908 239.146 22.4438 239.156 22.3987C239.166 22.3537 239.19 22.313 239.225 22.2824C239.259 22.2519 239.303 22.2332 239.349 22.2289C239.395 22.2247 239.442 22.2352 239.481 22.2589L240.163 22.6467Z" fill="white"/>
<path d="M238.035 23.4276C237.966 23.4449 237.886 23.4328 237.796 23.3914C237.762 23.3754 237.729 23.352 237.702 23.3242C237.674 23.2964 237.653 23.2655 237.642 23.2352C237.63 23.2049 237.628 23.1766 237.636 23.1538C237.644 23.131 237.662 23.1148 237.687 23.107C237.781 23.0829 237.9 23.0932 238.046 23.138C238.078 23.1477 238.105 23.1675 238.125 23.1944C238.144 23.2213 238.154 23.2538 238.153 23.2868C238.151 23.3198 238.139 23.3515 238.118 23.377C238.097 23.4025 238.068 23.4203 238.035 23.4276Z" fill="white"/>
<path d="M15.6063 73.9019C15.6063 73.858 15.6244 73.8159 15.6566 73.7849C15.6887 73.7538 15.7324 73.7364 15.7779 73.7364H19.8974C19.9457 73.7364 19.992 73.7549 20.0261 73.7879C20.0602 73.8209 20.0794 73.8656 20.0794 73.9122V81.9488C20.0793 82.0276 20.0605 82.1056 20.0244 82.1765C19.9883 82.2474 19.9359 82.3093 19.8714 82.3573C15.7311 85.4861 9.25548 85.755 4.88637 83.102C-1.43323 79.2596 -1.57367 69.8681 4.17899 65.5395C8.75615 62.0953 16.3501 62.4107 20.3239 66.7031C20.3426 66.724 20.3525 66.7512 20.3515 66.7791C20.3506 66.807 20.3388 66.8335 20.3187 66.8531L17.4892 69.6716C17.4719 69.6884 17.4514 69.7017 17.4288 69.7106C17.4063 69.7195 17.3823 69.7238 17.358 69.7233C17.3338 69.7228 17.3099 69.7175 17.2878 69.7078C17.2657 69.698 17.2457 69.6839 17.2291 69.6664C14.2175 66.4238 8.17881 66.4704 5.85382 70.53C4.6159 72.6866 4.65751 75.5878 5.94224 77.7288C7.86673 80.9403 12.0174 81.411 15.2942 80.056C15.3866 80.018 15.4656 79.9531 15.5211 79.8693C15.5767 79.7855 15.6063 79.6867 15.6063 79.5854V73.9019Z" fill="white"/>
<path d="M118.873 74.0674C118.873 76.9669 117.649 79.7476 115.47 81.7979C113.291 83.8482 110.335 85 107.254 85C104.172 85 101.216 83.8482 99.0371 81.7979C96.858 79.7476 95.6338 76.9669 95.6338 74.0674C95.6338 71.1678 96.858 68.3871 99.0371 66.3368C101.216 64.2866 104.172 63.1347 107.254 63.1347C110.335 63.1347 113.291 64.2866 115.47 66.3368C117.649 68.3871 118.873 71.1678 118.873 74.0674ZM107.235 67.2979C105.469 67.304 103.778 68.0231 102.534 69.297C101.29 70.5708 100.595 72.2951 100.601 74.0905C100.607 75.8859 101.315 77.6053 102.568 78.8705C103.821 80.1357 105.517 80.843 107.282 80.8369C109.048 80.8307 110.739 80.1116 111.983 78.8378C113.227 77.5639 113.923 75.8396 113.916 74.0443C113.91 72.2489 113.203 70.5295 111.95 69.2643C110.697 67.9991 109.001 67.2917 107.235 67.2979Z" fill="white"/>
<path d="M67.271 80.8059V84.4053C67.271 84.4533 67.2518 84.4993 67.2177 84.5333C67.1835 84.5672 67.1372 84.5863 67.0889 84.5863H51.9427C51.8944 84.5863 51.8481 84.5672 51.814 84.5333C51.7798 84.4993 51.7606 84.4533 51.7606 84.4053V63.7243C51.7606 63.6763 51.7798 63.6302 51.814 63.5963C51.8481 63.5623 51.8944 63.5433 51.9427 63.5433H56.4626C56.5109 63.5433 56.5572 63.5623 56.5914 63.5963C56.6255 63.6302 56.6447 63.6763 56.6447 63.7243V80.4439C56.6447 80.4919 56.6639 80.5379 56.698 80.5719C56.7322 80.6058 56.7785 80.6249 56.8267 80.6249H67.0889C67.1372 80.6249 67.1835 80.6439 67.2177 80.6779C67.2518 80.7118 67.271 80.7579 67.271 80.8059Z" fill="white"/>
<path d="M165.976 73.7933C168.463 74.931 169.614 76.7548 169.43 79.2648C169.149 83.1227 165.415 84.4622 162.107 84.5346C158.76 84.6104 154.797 84.619 150.216 84.5604C150.176 84.5591 150.138 84.5421 150.109 84.5132C150.081 84.4842 150.066 84.4455 150.066 84.4053L150.06 63.8432C150.06 63.7678 150.091 63.6954 150.144 63.6421C150.198 63.5888 150.271 63.5588 150.346 63.5588C155.714 63.5174 159.546 63.5381 161.841 63.6208C165.212 63.7398 168.572 65.5602 168.374 69.4337C168.294 71.0334 167.485 72.3676 165.945 73.4364C165.915 73.4572 165.891 73.4855 165.876 73.5184C165.861 73.5513 165.854 73.5877 165.857 73.6238C165.86 73.66 165.873 73.6947 165.894 73.7244C165.915 73.7541 165.943 73.7779 165.976 73.7933ZM154.918 67.4219V71.9522C154.918 72.0071 154.94 72.0597 154.979 72.0985C155.018 72.1373 155.071 72.1591 155.126 72.1591H160.229C161.08 72.1591 161.896 71.9193 162.498 71.4926C163.1 71.0659 163.438 70.4871 163.438 69.8836V69.4906C163.438 68.8871 163.1 68.3083 162.498 67.8815C161.896 67.4548 161.08 67.2151 160.229 67.2151H155.126C155.071 67.2151 155.018 67.2369 154.979 67.2757C154.94 67.3145 154.918 67.3671 154.918 67.4219ZM154.924 75.9446L154.913 80.6921C154.913 80.7497 154.936 80.805 154.977 80.8457C155.018 80.8864 155.074 80.9093 155.132 80.9093L161.207 80.9248C161.64 80.9257 162.069 80.8644 162.47 80.7445C162.87 80.6246 163.234 80.4485 163.541 80.2261C163.847 80.0037 164.091 79.7395 164.257 79.4486C164.423 79.1576 164.509 78.8456 164.51 78.5304V78.1477C164.511 77.5115 164.164 76.9008 163.547 76.4499C162.929 75.9989 162.091 75.7447 161.217 75.7429L155.142 75.7274C155.084 75.7274 155.029 75.7503 154.988 75.791C154.947 75.8318 154.924 75.887 154.924 75.9446Z" fill="white"/>
<path d="M209.069 63.5433C209.787 63.5433 210.494 63.5536 211.191 63.5743C211.287 63.5772 211.379 63.6064 211.458 63.6585C211.537 63.7106 211.6 63.7836 211.639 63.8691L220.871 84.4466C220.878 84.4614 220.881 84.4776 220.879 84.4938C220.879 84.5018 220.877 84.5098 220.874 84.5174C220.872 84.5251 220.868 84.5325 220.863 84.5395C220.854 84.5533 220.841 84.5648 220.826 84.573C220.811 84.5811 220.795 84.5857 220.777 84.5863H215.997C215.991 84.5862 215.985 84.5855 215.978 84.5842C215.97 84.5825 215.962 84.5798 215.954 84.5762C215.95 84.5741 215.946 84.5716 215.941 84.5689C215.925 84.5579 215.912 84.5424 215.904 84.5242L214.047 80.387C214.009 80.3033 213.949 80.232 213.872 80.1816C213.796 80.1312 213.707 80.1038 213.615 80.1026C213.234 80.0922 211.719 80.087 209.069 80.087C206.417 80.087 204.9 80.0922 204.518 80.1026C204.427 80.1038 204.338 80.1312 204.261 80.1816C204.185 80.232 204.124 80.3033 204.086 80.387L202.23 84.5191C202.222 84.5382 202.21 84.5543 202.193 84.5654C202.176 84.5765 202.156 84.582 202.136 84.5811H197.356C197.339 84.5805 197.322 84.576 197.307 84.5678C197.296 84.5618 197.286 84.5541 197.278 84.5449C197.275 84.5415 197.273 84.538 197.27 84.5343C197.261 84.5205 197.255 84.5048 197.254 84.4886C197.253 84.4724 197.255 84.4562 197.262 84.4415L206.505 63.8691C206.544 63.7843 206.605 63.7119 206.683 63.6598C206.762 63.6078 206.853 63.5782 206.947 63.5743C207.648 63.5536 208.355 63.5433 209.069 63.5433ZM205.772 76.1567C205.761 76.1808 205.757 76.2071 205.76 76.2331C205.762 76.2592 205.771 76.2843 205.785 76.3062C205.8 76.3282 205.819 76.3463 205.842 76.359C205.865 76.3717 205.891 76.3786 205.917 76.379L212.148 76.3894C212.175 76.3889 212.201 76.382 212.224 76.3693C212.247 76.3566 212.266 76.3385 212.281 76.3166C212.295 76.2946 212.304 76.2695 212.306 76.2435C212.308 76.2174 212.304 76.1911 212.294 76.167L209.194 68.6734C209.182 68.6446 209.161 68.62 209.135 68.6027C209.108 68.5854 209.077 68.5762 209.046 68.5762C209.014 68.5762 208.983 68.5854 208.957 68.6027C208.931 68.62 208.91 68.6446 208.898 68.6734L205.772 76.1567Z" fill="white"/>
<path d="M255.335 80.2887C255.335 80.3779 255.371 80.4634 255.436 80.5264C255.5 80.5895 255.587 80.6249 255.678 80.6249H265.732C265.795 80.6249 265.854 80.6494 265.898 80.693C265.942 80.7367 265.967 80.7959 265.967 80.8576L265.956 84.3225C265.955 84.3929 265.926 84.46 265.877 84.5093C265.827 84.5586 265.76 84.5863 265.691 84.5863H250.768C250.726 84.5863 250.684 84.5781 250.645 84.5623C250.606 84.5464 250.57 84.5232 250.54 84.4939C250.51 84.4646 250.487 84.4298 250.47 84.3915C250.454 84.3533 250.446 84.3122 250.446 84.2708L250.451 63.7036C250.451 63.6611 250.467 63.6203 250.497 63.5902C250.526 63.5602 250.566 63.5433 250.607 63.5433L255.174 63.5485C255.196 63.5485 255.217 63.5526 255.238 63.5607C255.258 63.5687 255.276 63.5805 255.292 63.5954C255.307 63.6103 255.319 63.628 255.328 63.6474C255.336 63.6669 255.34 63.6877 255.34 63.7088L255.335 80.2887Z" fill="white"/>
</svg>
