<svg width="32" height="32" viewBox="0 0 32 32" fill="none" xmlns="http://www.w3.org/2000/svg">
<path d="M21.9574 5.20384C21.7731 6.13699 21.9427 6.84048 22.4661 7.31431C23.2291 8.00571 24.5228 8.00088 25.2541 7.25871C25.8345 6.66884 25.9731 5.95246 25.6698 5.10956C25.2223 3.86939 23.4541 3.54061 22.4783 4.42299C22.4353 4.46148 22.3819 4.48645 22.3252 4.49465C22.2685 4.50284 22.211 4.49388 22.1604 4.46892C19.8175 3.3182 17.4305 2.84356 14.9996 3.04502C8.42089 3.59137 3.20927 8.98238 3.00629 15.5435C2.93781 17.7514 3.42857 19.882 4.47855 21.9353C4.68888 22.3431 4.93344 22.7153 5.21224 23.0522C5.23581 23.0928 5.27125 23.1254 5.31391 23.1458C5.35658 23.1661 5.40447 23.1732 5.45129 23.1661C5.49812 23.1591 5.54168 23.1382 5.57627 23.1062C5.61086 23.0742 5.63487 23.0326 5.64511 22.9869L5.65733 22.9337C5.67004 22.8713 5.66052 22.8071 5.63044 22.7524C5.28316 22.1223 5.09485 21.779 5.0655 21.7226C-0.402894 10.8825 10.7002 -0.395068 21.84 4.97418C21.8822 4.99498 21.9165 5.02863 21.9377 5.07005C21.9589 5.11148 21.9658 5.15844 21.9574 5.20384Z" fill="#2562FF"/>
<path d="M10.7613 8.37317C10.9831 8.37317 11.244 8.42716 11.5439 8.53515C11.5654 8.54336 11.5946 8.55917 11.63 8.58161C11.6653 8.60405 11.7059 8.63266 11.7494 8.66569C11.9092 8.78979 12.1105 8.83008 12.3534 8.78657C12.3737 8.78296 12.3924 8.77326 12.4069 8.7588C12.4214 8.74433 12.4311 8.7258 12.4345 8.70572C12.438 8.68564 12.4351 8.66499 12.4263 8.64658C12.4175 8.62817 12.4032 8.6129 12.3852 8.60283L11.6173 8.18461C11.6076 8.17898 11.5995 8.17097 11.5937 8.16136C11.588 8.15174 11.5849 8.14084 11.5846 8.12968C11.5844 8.11853 11.587 8.1075 11.5923 8.09765C11.5976 8.0878 11.6054 8.07945 11.6149 8.0734C11.8464 7.92997 12.0062 7.84052 12.0942 7.80506C12.1594 7.77766 12.3306 7.86308 12.6078 8.06132C12.81 8.20476 13.0317 8.1975 13.273 8.03956C13.2828 8.03302 13.2946 8.02987 13.3064 8.03062C13.3183 8.03136 13.3295 8.03595 13.3384 8.04367C13.3474 8.05139 13.3535 8.06181 13.3558 8.07331C13.3581 8.08481 13.3565 8.09674 13.3513 8.10725C13.2697 8.26519 13.0969 8.31274 12.8328 8.24988C12.8083 8.24409 12.7827 8.24519 12.7589 8.25304C12.7351 8.2609 12.7139 8.2752 12.6979 8.29433C12.6818 8.31345 12.6715 8.33664 12.6682 8.36126C12.6648 8.38588 12.6684 8.41094 12.6787 8.43361L12.7716 8.64151C12.7861 8.6739 12.807 8.70311 12.833 8.72746C12.8591 8.75181 12.8898 8.77083 12.9234 8.78341C12.9571 8.796 12.993 8.8019 13.029 8.80078C13.0651 8.79966 13.1006 8.79154 13.1336 8.77689L13.7695 8.49888C13.8011 8.48463 13.8258 8.45862 13.8382 8.42648C13.8505 8.39434 13.8496 8.35868 13.8355 8.32724L13.7866 8.22087C13.778 8.20202 13.7742 8.18143 13.7754 8.16078C13.7766 8.14013 13.7829 8.12001 13.7936 8.10208C13.8043 8.08414 13.8193 8.06891 13.8372 8.05762C13.8551 8.04633 13.8755 8.03931 13.8966 8.03714L14.151 8.01297C14.1682 8.01095 14.1857 8.01328 14.2018 8.01974C14.2179 8.0262 14.2321 8.03659 14.2433 8.04999C14.2544 8.0634 14.2621 8.07939 14.2656 8.09655C14.2691 8.11371 14.2684 8.1315 14.2635 8.14835L14.1803 8.40943C14.1688 8.44662 14.1727 8.48679 14.191 8.5212C14.2093 8.55561 14.2406 8.58147 14.2781 8.59316L14.3491 8.61492C14.3755 8.62319 14.4035 8.62525 14.4309 8.62096C14.4583 8.61666 14.4843 8.60612 14.5068 8.59017C14.5294 8.57421 14.5478 8.55329 14.5608 8.52905C14.5737 8.50482 14.5808 8.47793 14.5814 8.45053C14.5879 8.14432 14.8357 7.99524 15.3249 8.0033C15.9412 8.01135 16.3398 8.26519 16.5208 8.76481C16.5272 8.78279 16.5293 8.80197 16.5271 8.8209C16.5249 8.83983 16.5184 8.85802 16.508 8.87409C16.4977 8.89016 16.4837 8.90369 16.4673 8.91365C16.4509 8.92362 16.4324 8.92976 16.4132 8.93161L16.2004 8.95337C16.1776 8.95566 16.1556 8.96318 16.1361 8.97534C16.1166 8.98749 16.1001 9.00396 16.0879 9.02348C15.9738 9.20076 15.7659 9.21043 15.4643 9.05249C15.4452 9.04269 15.4297 9.02737 15.4197 9.00858C15.4097 8.98979 15.4058 8.96844 15.4085 8.94738C15.4111 8.92633 15.4202 8.90658 15.4346 8.8908C15.4489 8.87502 15.4678 8.86395 15.4887 8.85909C15.6974 8.80913 15.8026 8.76964 15.8042 8.74063C15.8046 8.68985 15.7904 8.64039 15.7627 8.59594C15.735 8.55149 15.6944 8.5132 15.6441 8.48392C15.5938 8.45463 15.535 8.43512 15.4721 8.42683C15.4092 8.41854 15.3438 8.42168 15.2808 8.43603C14.7444 8.56013 14.4175 8.77206 14.3002 9.07183C14.2904 9.09664 14.2735 9.11812 14.2517 9.13367C14.2298 9.14923 14.2039 9.15818 14.177 9.15946C14.15 9.16074 14.1233 9.15429 14.1001 9.14088C14.0768 9.12747 14.058 9.10769 14.0458 9.08392C13.9741 8.9437 13.8665 8.90744 13.723 8.97513C13.3676 9.14274 13.0928 9.28779 12.8988 9.41028C12.8331 9.45181 12.7851 9.51321 12.762 9.58523C12.7388 9.65725 12.7418 9.73601 12.7705 9.80963C12.7992 9.88325 12.852 9.94777 12.921 9.99346C12.99 10.0392 13.0715 10.0636 13.1532 10.063C13.4173 10.0614 13.5388 10.2177 13.5176 10.532C13.5143 10.6045 13.5542 10.6553 13.6374 10.6843C13.6522 10.689 13.6679 10.6908 13.6833 10.6897C13.6988 10.6886 13.7138 10.6846 13.7275 10.6778C13.7411 10.6711 13.7532 10.6617 13.7629 10.6504C13.7726 10.6391 13.7798 10.6259 13.7841 10.6118C13.8917 10.283 14.0849 10.1146 14.3637 10.1065C14.3821 10.1061 14.4001 10.1018 14.4165 10.0938C14.433 10.0859 14.4475 10.0745 14.4591 10.0605C14.4707 10.0465 14.4792 10.0302 14.4838 10.0127C14.4884 9.99518 14.4892 9.97688 14.486 9.95905C14.4534 9.77854 14.4754 9.5932 14.552 9.40302C14.573 9.3516 14.6126 9.30984 14.663 9.28608C14.7133 9.26233 14.7706 9.25833 14.8235 9.2749L15.2368 9.40061C15.2768 9.41302 15.3103 9.44031 15.33 9.47653C15.3497 9.51275 15.354 9.55497 15.342 9.59401L15.3224 9.65203C15.3173 9.66833 15.3162 9.68561 15.3193 9.70242C15.3224 9.71922 15.3295 9.73504 15.34 9.74856C15.3506 9.76207 15.3643 9.77288 15.3799 9.78006C15.3956 9.78724 15.4128 9.79059 15.43 9.78982C15.5588 9.7866 15.6982 9.74067 15.8482 9.65203C15.863 9.64347 15.8799 9.63923 15.897 9.63978C15.9141 9.64033 15.9308 9.64564 15.9452 9.65514C15.9596 9.66464 15.9712 9.67795 15.9787 9.6936C15.9862 9.70926 15.9893 9.72666 15.9876 9.74389C15.9567 9.99209 16.0553 10.1766 16.2835 10.2975C16.3113 10.3125 16.3341 10.3352 16.3491 10.3628C16.3642 10.3903 16.3708 10.4216 16.3682 10.4528C16.3656 10.484 16.3539 10.5138 16.3346 10.5386C16.3152 10.5634 16.289 10.5821 16.2591 10.5924C15.7683 10.76 15.3917 10.7689 15.1292 10.619C15.1122 10.6094 15.0932 10.6036 15.0737 10.602C15.0542 10.6003 15.0345 10.603 15.0161 10.6096C14.9977 10.6163 14.981 10.6269 14.9672 10.6406C14.9533 10.6544 14.9427 10.6709 14.936 10.6891C14.8284 10.976 14.5667 11.2605 14.151 11.5425C13.3904 12.0574 13.0896 12.6956 12.4635 13.1574C12.4267 13.1838 12.3963 13.2183 12.3743 13.2584C12.3523 13.2985 12.3394 13.3433 12.3363 13.3895L12.3143 13.7158C12.313 13.7323 12.3066 13.748 12.296 13.7609C12.2855 13.7737 12.2713 13.7831 12.2554 13.7876C12.2395 13.7921 12.2228 13.7916 12.2075 13.7861C12.1922 13.7806 12.1791 13.7704 12.17 13.7569L12.0306 13.5587C11.9754 13.4776 11.8919 13.4192 11.7958 13.3943C10.8241 13.1413 10.2111 13.4612 9.95674 14.354C9.94033 14.4125 9.93755 14.474 9.94864 14.5337C9.95972 14.5933 9.98436 14.6497 10.0207 14.6984C10.057 14.7471 10.1041 14.787 10.1582 14.8148C10.2124 14.8427 10.2723 14.8579 10.3334 14.8593C10.5111 14.8625 10.754 14.7674 11.0622 14.574C11.0794 14.5636 11.0993 14.5583 11.1195 14.559C11.1397 14.5597 11.1593 14.5662 11.1757 14.5779C11.1922 14.5895 11.2048 14.6056 11.212 14.6243C11.2192 14.643 11.2207 14.6633 11.2162 14.6828C11.1673 14.8794 11.2024 14.9987 11.3214 15.0406C11.3991 15.068 11.4684 15.1147 11.5228 15.176C11.5771 15.2373 11.6147 15.3114 11.632 15.3912C11.7054 15.7272 11.7102 15.9931 12.0306 16.1164C12.2866 16.2147 12.5295 16.1075 12.7594 15.7949C12.8115 15.7239 12.885 15.6711 12.9694 15.6442C13.0539 15.6172 13.1447 15.6175 13.229 15.645C14.4127 16.0318 15.3958 16.2929 15.9632 17.2212C16.0071 17.2927 16.0767 17.3461 16.1588 17.3711L17.3449 17.7337C17.465 17.771 17.5652 17.8537 17.6238 17.9637C17.6825 18.0737 17.6947 18.2022 17.658 18.3212L17.1615 19.9119C17.1298 20.0106 17.0663 20.0964 16.9806 20.156C16.8583 20.2286 16.6789 20.2688 16.4425 20.2769C16.3962 20.2781 16.3521 20.2969 16.3194 20.3292C16.2866 20.3616 16.2677 20.4052 16.2664 20.451C16.2403 21.476 15.7488 22.1642 14.7917 22.5155C14.7516 22.5304 14.7189 22.56 14.7006 22.5979C14.6823 22.6359 14.6799 22.6792 14.6939 22.7186C14.733 22.8298 14.7347 22.9434 14.6988 23.0594C14.6832 23.1107 14.6843 23.1654 14.7018 23.2158C14.7194 23.2661 14.7526 23.3096 14.7966 23.3399C14.8276 23.3608 14.8439 23.3721 14.8455 23.3737C14.8863 23.4074 14.9171 23.4513 14.9347 23.5006C14.9524 23.55 14.9562 23.603 14.9458 23.6541C14.9001 23.8959 14.989 24.0836 15.2124 24.2174C15.2382 24.233 15.2575 24.2572 15.2669 24.2856C15.2764 24.314 15.2752 24.3448 15.2637 24.3724C15.2523 24.4001 15.2312 24.4228 15.2043 24.4365C15.1774 24.4502 15.1464 24.4539 15.117 24.4471C14.5415 24.3085 14.1233 23.916 13.8624 23.2698C13.8284 23.1818 13.8102 23.0877 13.8086 22.9917C13.8053 22.6597 13.7377 22.3302 13.6056 22.003C13.5975 21.9805 13.5917 21.9578 13.5885 21.9353L13.3782 19.7958C13.3728 19.7438 13.3567 19.6935 13.3311 19.6478C13.3055 19.6021 13.2707 19.562 13.229 19.5299C12.7138 19.1334 12.3013 18.6878 11.9915 18.193C11.9129 18.0686 11.8694 17.9255 11.8656 17.7784C11.8617 17.6314 11.8976 17.4858 11.9695 17.3566L12.351 16.6676C12.3708 16.6324 12.3817 16.5929 12.3827 16.5526C12.3837 16.5124 12.3748 16.4724 12.3568 16.4363C12.3388 16.4002 12.3121 16.3689 12.2792 16.3452C12.2462 16.3215 12.2079 16.306 12.1676 16.3001C11.8268 16.2486 11.5415 16.093 11.3116 15.8336C11.0304 15.5144 10.71 15.5386 10.4434 15.2993C10.3365 15.203 10.1967 15.1503 10.0521 15.1518C9.43908 15.1599 9.0967 14.9471 9.02496 14.5136C8.92469 13.8875 8.54806 13.682 8.4698 13.0413C8.46734 13.0206 8.45674 13.0016 8.44027 12.9885C8.42381 12.9754 8.4028 12.9692 8.38176 12.9712L8.31817 12.9761C8.30272 12.9776 8.28774 12.9821 8.27407 12.9894C8.2604 12.9966 8.24832 13.0065 8.23854 13.0184C8.22876 13.0304 8.22147 13.0441 8.21709 13.0588C8.21271 13.0735 8.21132 13.089 8.21301 13.1042C8.24888 13.4572 8.37606 13.8053 8.59453 14.1486C8.6062 14.1661 8.61123 14.1872 8.60875 14.2081C8.60627 14.2289 8.59643 14.2483 8.58097 14.2627C8.56551 14.2771 8.5454 14.2857 8.52418 14.2869C8.50295 14.2882 8.48198 14.282 8.46492 14.2694C8.11275 14.0325 7.98557 13.6602 7.98801 13.2227C7.98964 13.0518 7.93421 12.9261 7.82172 12.8455C7.76628 12.807 7.7217 12.755 7.69218 12.6946C7.66265 12.6341 7.64916 12.5671 7.65297 12.4998C7.65623 12.437 7.64807 12.387 7.62851 12.3499C7.6186 12.332 7.60366 12.3172 7.58547 12.3074C7.56727 12.2976 7.54661 12.2932 7.52595 12.2947C7.50529 12.2963 7.48551 12.3036 7.469 12.316C7.45249 12.3284 7.43994 12.3452 7.43286 12.3645C6.58505 14.811 6.57853 17.0689 7.4133 19.1383C8.57252 22.007 10.6065 23.8685 13.5151 24.7227C17.1126 25.7815 20.8935 24.626 23.3758 21.8676C23.3897 21.8522 23.3997 21.8337 23.4048 21.8137C23.4099 21.7936 23.4101 21.7726 23.4053 21.7523C23.4005 21.732 23.3909 21.713 23.3773 21.6969C23.3637 21.6808 23.3464 21.6681 23.3269 21.6597C23.1427 21.5823 23.0816 21.4752 23.1435 21.3382C23.2071 21.198 23.172 21.0336 23.0383 20.845C22.872 20.6097 22.8109 20.3712 22.8549 20.1294C22.8703 20.0423 22.8608 19.9525 22.8276 19.8702C22.7944 19.7878 22.7386 19.7161 22.6666 19.6629L22.6152 19.6266C22.5851 19.6038 22.5628 19.5725 22.5514 19.537C22.5401 19.5015 22.5401 19.4636 22.5517 19.4284L22.7987 18.6378C22.8097 18.6051 22.8079 18.5698 22.7938 18.5387L22.2704 17.3832C22.2528 17.3419 22.2461 17.2961 22.2509 17.2502L22.3095 16.8271C22.3135 16.7997 22.311 16.7717 22.3022 16.7453C22.2935 16.7189 22.2788 16.6949 22.2592 16.6751C22.2396 16.6552 22.2156 16.6401 22.1891 16.6308C22.1627 16.6216 22.1344 16.6184 22.1066 16.6217C21.7691 16.6628 21.637 16.3751 21.2677 16.4162C20.8471 16.4621 19.9666 16.7619 19.6218 16.4403C19.2574 16.1019 18.8539 15.6813 18.9126 15.2195C18.9713 14.7682 18.9957 14.4524 18.986 14.2719C18.9845 14.2497 18.9878 14.2275 18.9958 14.2066C19.0039 14.1858 19.0163 14.1668 19.0324 14.151L19.7979 13.3919C19.8192 13.3716 19.8355 13.3466 19.8457 13.319C19.8559 13.2914 19.8596 13.2617 19.8566 13.2323C19.8289 12.989 19.9185 12.8399 20.1256 12.7851C20.5365 12.6771 21.2107 12.5683 22.1481 12.4587C22.1735 12.456 22.1991 12.4596 22.2227 12.4691C22.2462 12.4786 22.2671 12.4937 22.2833 12.5131C22.2996 12.5325 22.3107 12.5556 22.3157 12.5803C22.3207 12.6049 22.3194 12.6305 22.312 12.6546L22.2826 12.7512C22.2679 12.7994 22.2727 12.8513 22.296 12.8957C22.3194 12.94 22.3594 12.9733 22.4074 12.9882L23.3098 13.2638C23.3371 13.2716 23.3663 13.2691 23.3917 13.2565C23.4171 13.2439 23.4368 13.2224 23.4468 13.1961C23.4859 13.0897 23.5438 13.0156 23.6204 12.9737C23.6583 12.9528 23.7015 12.943 23.7448 12.9456C23.7882 12.9481 23.8298 12.9629 23.8649 12.9882C24.209 13.2412 24.5889 13.3451 25.0046 13.3C25.04 13.2966 25.073 13.2806 25.0976 13.2549C25.1223 13.2292 25.137 13.1955 25.1391 13.1598C25.1636 12.6425 24.9761 12.4023 24.5766 12.4394C24.5346 12.4431 24.4926 12.4339 24.4565 12.413C24.4205 12.3922 24.3924 12.3608 24.3761 12.3234L24.1707 11.8713C24.1596 11.8464 24.1412 11.8254 24.1178 11.8112C24.0943 11.797 24.067 11.7902 24.0396 11.7918C24.0122 11.7934 23.9859 11.8033 23.9643 11.8201C23.9427 11.8369 23.9268 11.8598 23.9188 11.8858L23.8332 12.1638C23.8226 12.1952 23.802 12.2223 23.7745 12.2411C23.747 12.2599 23.714 12.2693 23.6806 12.2679C23.6472 12.2666 23.6151 12.2545 23.5893 12.2335C23.5634 12.2125 23.5451 12.1838 23.5373 12.1517C23.4199 11.6263 23.1541 11.3282 22.74 11.2572C22.6933 11.2495 22.6453 11.2578 22.604 11.2807C22.5627 11.3036 22.5305 11.3397 22.5128 11.3832C22.4952 11.4266 22.493 11.4747 22.5067 11.5195C22.5205 11.5643 22.5493 11.6031 22.5883 11.6295L23.0677 11.9535C23.084 11.965 23.0978 11.9795 23.1083 11.9961C23.1188 12.0127 23.1258 12.0311 23.1288 12.0502C23.1566 12.2242 23.0579 12.3395 22.8329 12.3959C22.817 12.3996 22.8003 12.3972 22.7862 12.3891C22.7721 12.381 22.7617 12.3678 22.7571 12.3524V12.3475C22.7542 12.3382 22.7533 12.3284 22.7545 12.3187C22.7557 12.3089 22.7589 12.2995 22.7639 12.2909C22.7689 12.2824 22.7757 12.2748 22.7837 12.2688C22.7918 12.2627 22.801 12.2582 22.8109 12.2557C22.8875 12.2363 22.9364 12.1976 22.9576 12.1396C22.9688 12.1105 22.9679 12.0781 22.9551 12.0493C22.9423 12.0205 22.9187 11.9974 22.8892 11.9849C22.6185 11.8689 22.4123 11.7238 22.2704 11.5498C22.2459 11.5205 22.2141 11.4983 22.1784 11.4856C22.1427 11.4728 22.1043 11.4699 22.0674 11.4772C21.5604 11.5788 21.2424 11.8342 21.1136 12.2436C21.1011 12.286 21.0772 12.3244 21.0445 12.3546C21.0118 12.3848 20.9715 12.4057 20.9278 12.4152C20.6066 12.4894 20.3653 12.4748 20.2039 12.3717C20.1262 12.3219 20.0642 12.2486 20.0274 12.1628C19.9905 12.0769 19.9807 11.9833 19.9995 11.8959C20.0183 11.8086 20.0646 11.7323 20.1315 11.6785C20.1983 11.6248 20.2821 11.5966 20.3702 11.5981C20.468 11.5997 20.627 11.6013 20.8471 11.6029C20.874 11.6032 20.9007 11.5977 20.9253 11.5868C20.9499 11.5758 20.9718 11.5598 20.9897 11.5396C21.0075 11.5194 21.0208 11.4957 21.0287 11.4699C21.0366 11.4441 21.0389 11.4169 21.0354 11.3902C21.0272 11.337 20.9832 11.2484 20.9033 11.1243C20.8947 11.1106 20.8896 11.0951 20.8882 11.0791C20.8869 11.063 20.8894 11.0469 20.8957 11.032C20.9019 11.0172 20.9116 11.004 20.924 10.9935C20.9363 10.9831 20.9511 10.9757 20.9669 10.972C21.3142 10.8914 21.5718 10.6996 21.7397 10.3966C21.7665 10.3489 21.8091 10.3118 21.8603 10.2915C21.9116 10.2713 21.9683 10.2691 22.021 10.2854L22.334 10.3821C22.3566 10.3891 22.3805 10.3904 22.4037 10.3859C22.427 10.3815 22.4487 10.3713 22.4669 10.3564C22.4851 10.3415 22.4993 10.3224 22.5081 10.3007C22.5169 10.279 22.5201 10.2554 22.5174 10.2322L22.4954 10.0267C22.4915 10.0002 22.4815 9.97494 22.4662 9.95284C22.451 9.93074 22.4309 9.91242 22.4074 9.89932C22.384 9.88622 22.3579 9.87868 22.3312 9.8773C22.3044 9.87592 22.2778 9.88073 22.2533 9.89136C22.0854 9.9655 21.9248 9.83576 21.7715 9.50214C21.763 9.48376 21.7582 9.46388 21.7575 9.44366C21.7569 9.42344 21.7603 9.40329 21.7676 9.38438C21.7748 9.36548 21.7859 9.3482 21.8 9.33355C21.8141 9.3189 21.831 9.30718 21.8498 9.29907L22.2729 9.11293C22.3045 9.09904 22.332 9.07737 22.3528 9.04999C22.3736 9.02262 22.387 8.99044 22.3916 8.95652C22.3963 8.9226 22.3921 8.88806 22.3794 8.8562C22.3668 8.82434 22.3461 8.7962 22.3193 8.77448C18.9346 5.98227 14.3197 5.75503 10.732 8.28614C10.7238 8.29223 10.7177 8.30072 10.7147 8.31041C10.7116 8.32009 10.7117 8.33049 10.7149 8.34011C10.7182 8.34974 10.7244 8.35811 10.7327 8.36405C10.7411 8.36998 10.7511 8.37317 10.7613 8.37317Z" fill="#2562FF"/>
<path d="M20.8079 10.7181C20.8699 10.7326 20.9604 10.7351 21.0794 10.7254C21.1068 10.723 21.1333 10.7143 21.1566 10.6998C21.1799 10.6854 21.1995 10.6656 21.2136 10.6423C21.2277 10.6189 21.2359 10.5925 21.2377 10.5654C21.2394 10.5382 21.2346 10.511 21.2237 10.4861L20.918 9.80675C20.9066 9.78232 20.8874 9.76226 20.8631 9.7496C20.8388 9.73695 20.8108 9.73239 20.7835 9.73664C20.6775 9.75114 20.6017 9.80997 20.556 9.91312C20.5508 9.92485 20.5485 9.9377 20.5495 9.9505C20.5505 9.9633 20.5547 9.97566 20.5618 9.98645C20.5688 9.99724 20.5784 10.0061 20.5898 10.0123C20.6012 10.0185 20.614 10.0218 20.627 10.0219C20.6384 10.0219 20.6539 10.0267 20.6734 10.0364C20.7259 10.0631 20.7687 10.1054 20.7957 10.1573C20.8772 10.3056 20.865 10.4248 20.759 10.5151C20.7425 10.5295 20.7302 10.5481 20.7235 10.5688C20.7168 10.5896 20.7159 10.6117 20.7209 10.6327C20.726 10.6537 20.7368 10.6728 20.7521 10.6879C20.7675 10.7029 20.7868 10.7134 20.8079 10.7181Z" fill="#2562FF"/>
<path d="M20.177 10.5513C20.2683 10.5449 20.349 10.5143 20.4191 10.4595C20.4443 10.4393 20.4654 10.4145 20.4809 10.3867C20.4964 10.3589 20.506 10.3287 20.509 10.2981C20.512 10.2675 20.5083 10.2372 20.4983 10.2091C20.4883 10.1811 20.4721 10.156 20.4509 10.1355C20.3759 10.0614 20.2511 10.1363 20.0767 10.3604C20.0626 10.3782 20.0541 10.3997 20.052 10.4223C20.0499 10.4448 20.0544 10.4675 20.065 10.4876C20.0755 10.5077 20.0917 10.5244 20.1115 10.5357C20.1314 10.547 20.1541 10.5524 20.177 10.5513Z" fill="#2562FF"/>
<path d="M16.3814 11.0469L16.061 10.8656C16.0423 10.8545 16.0205 10.8496 15.9988 10.8516C15.9771 10.8536 15.9566 10.8623 15.9402 10.8766C15.9239 10.8909 15.9125 10.9099 15.9079 10.931C15.9032 10.952 15.9054 10.974 15.9143 10.9937C16.0007 11.1952 16.1523 11.2572 16.3691 11.1799C16.3829 11.1755 16.395 11.1673 16.404 11.1562C16.413 11.1451 16.4185 11.1316 16.4198 11.1174C16.4211 11.1032 16.4181 11.089 16.4113 11.0764C16.4045 11.0639 16.3941 11.0536 16.3814 11.0469Z" fill="#2562FF"/>
<path d="M15.386 11.2766C15.3175 11.2556 15.2613 11.2508 15.2173 11.2621C15.2055 11.2657 15.1972 11.2733 15.1934 11.284C15.1896 11.2946 15.1905 11.3078 15.196 11.322C15.2014 11.3362 15.2112 11.3506 15.2241 11.3636C15.2371 11.3766 15.2525 11.3875 15.2686 11.395C15.311 11.4144 15.3485 11.42 15.3811 11.412C15.3963 11.4085 15.41 11.4002 15.4199 11.3883C15.4299 11.3764 15.4356 11.3616 15.4362 11.3461C15.4367 11.3307 15.4321 11.3155 15.423 11.3029C15.414 11.2904 15.4009 11.2811 15.386 11.2766Z" fill="#2562FF"/>
<path d="M21.9574 5.20384C21.9658 5.15844 21.9589 5.11148 21.9377 5.07005C21.9165 5.02863 21.8822 4.99498 21.84 4.97418C10.7002 -0.395068 -0.402894 10.8825 5.0655 21.7226C5.09485 21.779 5.28316 22.1223 5.63044 22.7524C5.66052 22.8071 5.67004 22.8713 5.65733 22.9337L5.64511 22.9869C5.63487 23.0326 5.61086 23.0742 5.57627 23.1062C5.54168 23.1382 5.49812 23.1591 5.45129 23.1661C5.40447 23.1732 5.35658 23.1661 5.31391 23.1458C5.27125 23.1254 5.23581 23.0928 5.21224 23.0522C4.93344 22.7153 4.68888 22.3431 4.47855 21.9353C3.42857 19.882 2.93781 17.7514 3.00629 15.5435C3.20927 8.98238 8.42089 3.59137 14.9996 3.04502C17.4305 2.84356 19.8175 3.3182 22.1604 4.46892C22.211 4.49388 22.2685 4.50284 22.3252 4.49465C22.3819 4.48645 22.4353 4.46148 22.4783 4.42299C23.4541 3.54061 25.2223 3.86939 25.6698 5.10956C25.9731 5.95246 25.8345 6.66884 25.2541 7.25871C24.5228 8.00088 23.2291 8.00571 22.4661 7.31431C21.9427 6.84048 21.7731 6.13699 21.9574 5.20384Z" fill="#2562FF"/>
<path d="M10.7613 8.37317C10.7511 8.37317 10.7411 8.36998 10.7327 8.36405C10.7244 8.35811 10.7182 8.34974 10.7149 8.34011C10.7117 8.33049 10.7116 8.32009 10.7147 8.31041C10.7177 8.30072 10.7238 8.29223 10.732 8.28614C14.3197 5.75503 18.9346 5.98227 22.3193 8.77448C22.3461 8.7962 22.3668 8.82434 22.3794 8.8562C22.3921 8.88806 22.3963 8.9226 22.3916 8.95652C22.387 8.99044 22.3736 9.02262 22.3528 9.04999C22.332 9.07737 22.3045 9.09904 22.2729 9.11293L21.8498 9.29907C21.831 9.30718 21.8141 9.3189 21.8 9.33355C21.7859 9.3482 21.7748 9.36548 21.7676 9.38438C21.7603 9.40329 21.7569 9.42344 21.7575 9.44366C21.7582 9.46388 21.763 9.48376 21.7715 9.50214C21.9248 9.83576 22.0854 9.9655 22.2533 9.89136C22.2778 9.88073 22.3044 9.87592 22.3312 9.8773C22.3579 9.87868 22.384 9.88622 22.4074 9.89932C22.4309 9.91242 22.451 9.93074 22.4662 9.95284C22.4815 9.97494 22.4915 10.0002 22.4954 10.0267L22.5174 10.2322C22.5201 10.2554 22.5169 10.279 22.5081 10.3007C22.4993 10.3224 22.4851 10.3415 22.4669 10.3564C22.4487 10.3713 22.427 10.3815 22.4037 10.3859C22.3805 10.3904 22.3566 10.3891 22.334 10.3821L22.021 10.2854C21.9683 10.2691 21.9116 10.2713 21.8603 10.2915C21.8091 10.3118 21.7665 10.3489 21.7397 10.3966C21.5718 10.6996 21.3142 10.8914 20.9669 10.972C20.9511 10.9757 20.9363 10.9831 20.924 10.9935C20.9116 11.004 20.9019 11.0172 20.8957 11.032C20.8894 11.0469 20.8869 11.063 20.8882 11.0791C20.8896 11.0951 20.8947 11.1106 20.9033 11.1243C20.9832 11.2484 21.0272 11.337 21.0354 11.3902C21.0389 11.4169 21.0366 11.4441 21.0287 11.4699C21.0208 11.4957 21.0075 11.5194 20.9897 11.5396C20.9718 11.5598 20.9499 11.5758 20.9253 11.5868C20.9007 11.5977 20.874 11.6032 20.8471 11.6029C20.627 11.6013 20.468 11.5997 20.3702 11.5981C20.2821 11.5966 20.1983 11.6248 20.1315 11.6785C20.0646 11.7323 20.0183 11.8086 19.9995 11.8959C19.9807 11.9833 19.9905 12.0769 20.0274 12.1628C20.0642 12.2486 20.1262 12.3219 20.2039 12.3717C20.3653 12.4748 20.6066 12.4894 20.9278 12.4152C20.9715 12.4057 21.0118 12.3848 21.0445 12.3546C21.0772 12.3244 21.1011 12.286 21.1136 12.2436C21.2424 11.8342 21.5604 11.5788 22.0674 11.4772C22.1043 11.4699 22.1427 11.4728 22.1784 11.4856C22.2141 11.4983 22.2459 11.5205 22.2704 11.5498C22.4123 11.7238 22.6185 11.8689 22.8892 11.9849C22.9187 11.9974 22.9423 12.0205 22.9551 12.0493C22.9679 12.0781 22.9688 12.1105 22.9576 12.1396C22.9364 12.1976 22.8875 12.2363 22.8109 12.2557C22.801 12.2582 22.7918 12.2627 22.7837 12.2688C22.7757 12.2748 22.7689 12.2824 22.7639 12.2909C22.7589 12.2995 22.7557 12.3089 22.7545 12.3187C22.7533 12.3284 22.7542 12.3382 22.7571 12.3475V12.3524C22.7617 12.3678 22.7721 12.381 22.7862 12.3891C22.8003 12.3972 22.817 12.3996 22.8329 12.3959C23.0579 12.3395 23.1566 12.2242 23.1288 12.0502C23.1258 12.0311 23.1188 12.0127 23.1083 11.9961C23.0978 11.9795 23.084 11.965 23.0677 11.9535L22.5883 11.6295C22.5493 11.6031 22.5205 11.5643 22.5067 11.5195C22.493 11.4747 22.4952 11.4266 22.5128 11.3832C22.5305 11.3397 22.5627 11.3036 22.604 11.2807C22.6453 11.2578 22.6933 11.2495 22.74 11.2572C23.1541 11.3282 23.4199 11.6263 23.5373 12.1517C23.5451 12.1838 23.5634 12.2125 23.5893 12.2335C23.6151 12.2545 23.6472 12.2666 23.6806 12.2679C23.714 12.2693 23.747 12.2599 23.7745 12.2411C23.802 12.2223 23.8226 12.1952 23.8332 12.1638L23.9188 11.8858C23.9268 11.8598 23.9427 11.8369 23.9643 11.8201C23.9859 11.8033 24.0122 11.7934 24.0396 11.7918C24.067 11.7902 24.0943 11.797 24.1178 11.8112C24.1412 11.8254 24.1596 11.8464 24.1707 11.8713L24.3761 12.3234C24.3924 12.3608 24.4205 12.3922 24.4565 12.413C24.4926 12.4339 24.5346 12.4431 24.5766 12.4394C24.9761 12.4023 25.1636 12.6425 25.1391 13.1598C25.137 13.1955 25.1223 13.2292 25.0976 13.2549C25.073 13.2806 25.04 13.2966 25.0046 13.3C24.5889 13.3451 24.209 13.2412 23.8649 12.9882C23.8298 12.9629 23.7882 12.9481 23.7448 12.9456C23.7015 12.943 23.6583 12.9528 23.6204 12.9737C23.5438 13.0156 23.4859 13.0897 23.4468 13.1961C23.4368 13.2224 23.4171 13.2439 23.3917 13.2565C23.3663 13.2691 23.3371 13.2716 23.3098 13.2638L22.4074 12.9882C22.3594 12.9733 22.3194 12.94 22.296 12.8957C22.2727 12.8513 22.2679 12.7994 22.2826 12.7512L22.312 12.6546C22.3194 12.6305 22.3207 12.6049 22.3157 12.5803C22.3107 12.5556 22.2996 12.5325 22.2833 12.5131C22.2671 12.4937 22.2462 12.4786 22.2227 12.4691C22.1991 12.4596 22.1735 12.456 22.1481 12.4587C21.2107 12.5683 20.5365 12.6771 20.1256 12.7851C19.9185 12.8399 19.8289 12.989 19.8566 13.2323C19.8596 13.2617 19.8559 13.2914 19.8457 13.319C19.8355 13.3466 19.8192 13.3716 19.7979 13.3919L19.0324 14.151C19.0163 14.1668 19.0039 14.1858 18.9958 14.2066C18.9878 14.2275 18.9845 14.2497 18.986 14.2719C18.9957 14.4524 18.9713 14.7682 18.9126 15.2195C18.8539 15.6813 19.2574 16.1019 19.6218 16.4403C19.9666 16.7619 20.8471 16.4621 21.2677 16.4162C21.637 16.3751 21.7691 16.6628 22.1066 16.6217C22.1344 16.6184 22.1627 16.6216 22.1891 16.6308C22.2156 16.6401 22.2396 16.6552 22.2592 16.6751C22.2788 16.6949 22.2935 16.7189 22.3022 16.7453C22.311 16.7717 22.3135 16.7997 22.3095 16.8271L22.2509 17.2502C22.2461 17.2961 22.2528 17.3419 22.2704 17.3832L22.7938 18.5387C22.8079 18.5698 22.8097 18.6051 22.7987 18.6378L22.5517 19.4284C22.5401 19.4636 22.5401 19.5015 22.5514 19.537C22.5628 19.5725 22.5851 19.6038 22.6152 19.6266L22.6666 19.6629C22.7386 19.7161 22.7944 19.7878 22.8276 19.8702C22.8608 19.9525 22.8703 20.0423 22.8549 20.1294C22.8109 20.3712 22.872 20.6097 23.0383 20.845C23.172 21.0336 23.2071 21.198 23.1435 21.3382C23.0816 21.4752 23.1427 21.5823 23.3269 21.6597C23.3464 21.6681 23.3637 21.6808 23.3773 21.6969C23.3909 21.713 23.4005 21.732 23.4053 21.7523C23.4101 21.7726 23.4099 21.7936 23.4048 21.8137C23.3997 21.8337 23.3897 21.8522 23.3758 21.8676C20.8935 24.626 17.1126 25.7815 13.5151 24.7227C10.6065 23.8685 8.57252 22.007 7.4133 19.1383C6.57853 17.0689 6.58505 14.811 7.43286 12.3645C7.43994 12.3452 7.45249 12.3284 7.469 12.316C7.48551 12.3036 7.50529 12.2963 7.52595 12.2947C7.54661 12.2932 7.56727 12.2976 7.58547 12.3074C7.60366 12.3172 7.6186 12.332 7.62851 12.3499C7.64807 12.387 7.65623 12.437 7.65297 12.4998C7.64916 12.5671 7.66265 12.6341 7.69218 12.6946C7.7217 12.755 7.76628 12.807 7.82172 12.8455C7.93421 12.9261 7.98964 13.0518 7.98801 13.2227C7.98557 13.6602 8.11275 14.0325 8.46492 14.2694C8.48198 14.282 8.50295 14.2882 8.52418 14.2869C8.5454 14.2857 8.56551 14.2771 8.58097 14.2627C8.59643 14.2483 8.60627 14.2289 8.60875 14.2081C8.61123 14.1872 8.6062 14.1661 8.59453 14.1486C8.37606 13.8053 8.24888 13.4572 8.21301 13.1042C8.21132 13.089 8.21271 13.0735 8.21709 13.0588C8.22147 13.0441 8.22876 13.0304 8.23854 13.0184C8.24832 13.0065 8.2604 12.9966 8.27407 12.9894C8.28774 12.9821 8.30272 12.9776 8.31817 12.9761L8.38176 12.9712C8.4028 12.9692 8.42381 12.9754 8.44027 12.9885C8.45674 13.0016 8.46734 13.0206 8.4698 13.0413C8.54806 13.682 8.92469 13.8875 9.02496 14.5136C9.0967 14.9471 9.43908 15.1599 10.0521 15.1518C10.1967 15.1503 10.3365 15.203 10.4434 15.2993C10.71 15.5386 11.0304 15.5144 11.3116 15.8336C11.5415 16.093 11.8268 16.2486 12.1676 16.3001C12.2079 16.306 12.2462 16.3215 12.2792 16.3452C12.3121 16.3689 12.3388 16.4002 12.3568 16.4363C12.3748 16.4724 12.3837 16.5124 12.3827 16.5526C12.3817 16.5929 12.3708 16.6324 12.351 16.6676L11.9695 17.3566C11.8976 17.4858 11.8617 17.6314 11.8656 17.7784C11.8694 17.9255 11.9129 18.0686 11.9915 18.193C12.3013 18.6878 12.7138 19.1334 13.229 19.5299C13.2707 19.562 13.3055 19.6021 13.3311 19.6478C13.3567 19.6935 13.3728 19.7438 13.3782 19.7958L13.5885 21.9353C13.5917 21.9578 13.5975 21.9805 13.6056 22.003C13.7377 22.3302 13.8053 22.6597 13.8086 22.9917C13.8102 23.0877 13.8284 23.1818 13.8624 23.2698C14.1233 23.916 14.5415 24.3085 15.117 24.4471C15.1464 24.4539 15.1774 24.4502 15.2043 24.4365C15.2312 24.4228 15.2523 24.4001 15.2637 24.3724C15.2752 24.3448 15.2764 24.314 15.2669 24.2856C15.2575 24.2572 15.2382 24.233 15.2124 24.2174C14.989 24.0836 14.9001 23.8959 14.9458 23.6541C14.9562 23.603 14.9524 23.55 14.9347 23.5006C14.9171 23.4513 14.8863 23.4074 14.8455 23.3737C14.8439 23.3721 14.8276 23.3608 14.7966 23.3399C14.7526 23.3096 14.7194 23.2661 14.7018 23.2158C14.6843 23.1654 14.6832 23.1107 14.6988 23.0594C14.7347 22.9434 14.733 22.8298 14.6939 22.7186C14.6799 22.6792 14.6823 22.6359 14.7006 22.5979C14.7189 22.56 14.7516 22.5304 14.7917 22.5155C15.7488 22.1642 16.2403 21.476 16.2664 20.451C16.2677 20.4052 16.2866 20.3616 16.3194 20.3292C16.3521 20.2969 16.3962 20.2781 16.4425 20.2769C16.6789 20.2688 16.8583 20.2286 16.9806 20.156C17.0663 20.0964 17.1298 20.0106 17.1615 19.9119L17.658 18.3212C17.6947 18.2022 17.6825 18.0737 17.6238 17.9637C17.5652 17.8537 17.465 17.771 17.3449 17.7337L16.1588 17.3711C16.0767 17.3461 16.0071 17.2927 15.9632 17.2212C15.3958 16.2929 14.4127 16.0318 13.229 15.645C13.1447 15.6175 13.0539 15.6172 12.9694 15.6442C12.885 15.6711 12.8115 15.7239 12.7594 15.7949C12.5295 16.1075 12.2866 16.2147 12.0306 16.1164C11.7102 15.9931 11.7054 15.7272 11.632 15.3912C11.6147 15.3114 11.5771 15.2373 11.5228 15.176C11.4684 15.1147 11.3991 15.068 11.3214 15.0406C11.2024 14.9987 11.1673 14.8794 11.2162 14.6828C11.2207 14.6633 11.2192 14.643 11.212 14.6243C11.2048 14.6056 11.1922 14.5895 11.1757 14.5779C11.1593 14.5662 11.1397 14.5597 11.1195 14.559C11.0993 14.5583 11.0794 14.5636 11.0622 14.574C10.754 14.7674 10.5111 14.8625 10.3334 14.8593C10.2723 14.8579 10.2124 14.8427 10.1582 14.8148C10.1041 14.787 10.057 14.7471 10.0207 14.6984C9.98436 14.6497 9.95972 14.5933 9.94864 14.5337C9.93755 14.474 9.94033 14.4125 9.95674 14.354C10.2111 13.4612 10.8241 13.1413 11.7958 13.3943C11.8919 13.4192 11.9754 13.4776 12.0306 13.5587L12.17 13.7569C12.1791 13.7704 12.1922 13.7806 12.2075 13.7861C12.2228 13.7916 12.2395 13.7921 12.2554 13.7876C12.2713 13.7831 12.2855 13.7737 12.296 13.7609C12.3066 13.748 12.313 13.7323 12.3143 13.7158L12.3363 13.3895C12.3394 13.3433 12.3523 13.2985 12.3743 13.2584C12.3963 13.2183 12.4267 13.1838 12.4635 13.1574C13.0896 12.6956 13.3904 12.0574 14.151 11.5425C14.5667 11.2605 14.8284 10.976 14.936 10.6891C14.9427 10.6709 14.9533 10.6544 14.9672 10.6406C14.981 10.6269 14.9977 10.6163 15.0161 10.6096C15.0345 10.603 15.0542 10.6003 15.0737 10.602C15.0932 10.6036 15.1122 10.6094 15.1292 10.619C15.3917 10.7689 15.7683 10.76 16.2591 10.5924C16.289 10.5821 16.3152 10.5634 16.3346 10.5386C16.3539 10.5138 16.3656 10.484 16.3682 10.4528C16.3708 10.4216 16.3642 10.3903 16.3491 10.3628C16.3341 10.3352 16.3113 10.3125 16.2835 10.2975C16.0553 10.1766 15.9567 9.99209 15.9876 9.74389C15.9893 9.72666 15.9862 9.70926 15.9787 9.6936C15.9712 9.67795 15.9596 9.66464 15.9452 9.65514C15.9308 9.64564 15.9141 9.64033 15.897 9.63978C15.8799 9.63923 15.863 9.64347 15.8482 9.65203C15.6982 9.74067 15.5588 9.7866 15.43 9.78982C15.4128 9.79059 15.3956 9.78724 15.3799 9.78006C15.3643 9.77288 15.3506 9.76207 15.34 9.74856C15.3295 9.73504 15.3224 9.71922 15.3193 9.70242C15.3162 9.68561 15.3173 9.66833 15.3224 9.65203L15.342 9.59401C15.354 9.55497 15.3497 9.51275 15.33 9.47653C15.3103 9.44031 15.2768 9.41302 15.2368 9.40061L14.8235 9.2749C14.7706 9.25833 14.7133 9.26233 14.663 9.28608C14.6126 9.30984 14.573 9.3516 14.552 9.40302C14.4754 9.5932 14.4534 9.77854 14.486 9.95905C14.4892 9.97688 14.4884 9.99518 14.4838 10.0127C14.4792 10.0302 14.4707 10.0465 14.4591 10.0605C14.4475 10.0745 14.433 10.0859 14.4165 10.0938C14.4001 10.1018 14.3821 10.1061 14.3637 10.1065C14.0849 10.1146 13.8917 10.283 13.7841 10.6118C13.7798 10.6259 13.7726 10.6391 13.7629 10.6504C13.7532 10.6617 13.7411 10.6711 13.7275 10.6778C13.7138 10.6846 13.6988 10.6886 13.6833 10.6897C13.6679 10.6908 13.6522 10.689 13.6374 10.6843C13.5542 10.6553 13.5143 10.6045 13.5176 10.532C13.5388 10.2177 13.4173 10.0614 13.1532 10.063C13.0715 10.0636 12.99 10.0392 12.921 9.99346C12.852 9.94777 12.7992 9.88325 12.7705 9.80963C12.7418 9.73601 12.7388 9.65725 12.762 9.58523C12.7851 9.51321 12.8331 9.45181 12.8988 9.41028C13.0928 9.28779 13.3676 9.14274 13.723 8.97513C13.8665 8.90744 13.9741 8.9437 14.0458 9.08392C14.058 9.10769 14.0768 9.12747 14.1001 9.14088C14.1233 9.15429 14.15 9.16074 14.177 9.15946C14.2039 9.15818 14.2298 9.14923 14.2517 9.13367C14.2735 9.11812 14.2904 9.09664 14.3002 9.07183C14.4175 8.77206 14.7444 8.56013 15.2808 8.43603C15.3438 8.42168 15.4092 8.41854 15.4721 8.42683C15.535 8.43512 15.5938 8.45463 15.6441 8.48392C15.6944 8.5132 15.735 8.55149 15.7627 8.59594C15.7904 8.64039 15.8046 8.68985 15.8042 8.74063C15.8026 8.76964 15.6974 8.80913 15.4887 8.85909C15.4678 8.86395 15.4489 8.87502 15.4346 8.8908C15.4202 8.90658 15.4111 8.92633 15.4085 8.94738C15.4058 8.96844 15.4097 8.98979 15.4197 9.00858C15.4297 9.02737 15.4452 9.04269 15.4643 9.05249C15.7659 9.21043 15.9738 9.20076 16.0879 9.02348C16.1001 9.00396 16.1166 8.98749 16.1361 8.97534C16.1556 8.96318 16.1776 8.95566 16.2004 8.95337L16.4132 8.93161C16.4324 8.92976 16.4509 8.92362 16.4673 8.91365C16.4837 8.90369 16.4977 8.89016 16.508 8.87409C16.5184 8.85802 16.5249 8.83983 16.5271 8.8209C16.5293 8.80197 16.5272 8.78279 16.5208 8.76481C16.3398 8.26519 15.9412 8.01135 15.3249 8.0033C14.8357 7.99524 14.5879 8.14432 14.5814 8.45053C14.5808 8.47793 14.5737 8.50482 14.5608 8.52905C14.5478 8.55329 14.5294 8.57421 14.5068 8.59017C14.4843 8.60612 14.4583 8.61666 14.4309 8.62096C14.4035 8.62525 14.3755 8.62319 14.3491 8.61492L14.2781 8.59316C14.2406 8.58147 14.2093 8.55561 14.191 8.5212C14.1727 8.48679 14.1688 8.44662 14.1803 8.40943L14.2635 8.14835C14.2684 8.1315 14.2691 8.11371 14.2656 8.09655C14.2621 8.07939 14.2544 8.0634 14.2433 8.04999C14.2321 8.03659 14.2179 8.0262 14.2018 8.01974C14.1857 8.01328 14.1682 8.01095 14.151 8.01297L13.8966 8.03714C13.8755 8.03931 13.8551 8.04633 13.8372 8.05762C13.8193 8.06891 13.8043 8.08414 13.7936 8.10208C13.7829 8.12001 13.7766 8.14013 13.7754 8.16078C13.7742 8.18143 13.778 8.20202 13.7866 8.22087L13.8355 8.32724C13.8496 8.35868 13.8505 8.39434 13.8382 8.42648C13.8258 8.45862 13.8011 8.48463 13.7695 8.49888L13.1336 8.77689C13.1006 8.79154 13.0651 8.79966 13.029 8.80078C12.993 8.8019 12.9571 8.796 12.9234 8.78341C12.8898 8.77083 12.8591 8.75181 12.833 8.72746C12.807 8.70311 12.7861 8.6739 12.7716 8.64151L12.6787 8.43361C12.6684 8.41094 12.6648 8.38588 12.6682 8.36126C12.6715 8.33664 12.6818 8.31345 12.6979 8.29433C12.7139 8.2752 12.7351 8.2609 12.7589 8.25304C12.7827 8.24519 12.8083 8.24409 12.8328 8.24988C13.0969 8.31274 13.2697 8.26519 13.3513 8.10725C13.3565 8.09674 13.3581 8.08481 13.3558 8.07331C13.3535 8.06181 13.3474 8.05139 13.3384 8.04367C13.3295 8.03595 13.3183 8.03136 13.3064 8.03062C13.2946 8.02987 13.2828 8.03302 13.273 8.03956C13.0317 8.1975 12.81 8.20476 12.6078 8.06132C12.3306 7.86308 12.1594 7.77766 12.0942 7.80506C12.0062 7.84052 11.8464 7.92997 11.6149 8.0734C11.6054 8.07945 11.5976 8.0878 11.5923 8.09765C11.587 8.1075 11.5844 8.11853 11.5846 8.12968C11.5849 8.14084 11.588 8.15174 11.5937 8.16136C11.5995 8.17097 11.6076 8.17898 11.6173 8.18461L12.3852 8.60283C12.4032 8.6129 12.4175 8.62817 12.4263 8.64658C12.4351 8.66499 12.438 8.68564 12.4345 8.70572C12.4311 8.7258 12.4214 8.74433 12.4069 8.7588C12.3924 8.77326 12.3737 8.78296 12.3534 8.78657C12.1105 8.83008 11.9092 8.78979 11.7494 8.66569C11.7059 8.63266 11.6653 8.60405 11.63 8.58161C11.5946 8.55917 11.5654 8.54336 11.5439 8.53515C11.244 8.42716 10.9831 8.37317 10.7613 8.37317ZM20.8079 10.7181C20.8699 10.7326 20.9604 10.7351 21.0794 10.7254C21.1068 10.723 21.1333 10.7143 21.1566 10.6998C21.1799 10.6854 21.1995 10.6656 21.2136 10.6423C21.2277 10.6189 21.2359 10.5925 21.2377 10.5654C21.2394 10.5382 21.2346 10.511 21.2237 10.4861L20.918 9.80675C20.9066 9.78232 20.8874 9.76226 20.8631 9.7496C20.8388 9.73695 20.8108 9.73239 20.7835 9.73664C20.6775 9.75114 20.6017 9.80997 20.556 9.91312C20.5508 9.92485 20.5485 9.9377 20.5495 9.9505C20.5505 9.9633 20.5547 9.97566 20.5618 9.98645C20.5688 9.99724 20.5784 10.0061 20.5898 10.0123C20.6012 10.0185 20.614 10.0218 20.627 10.0219C20.6384 10.0219 20.6539 10.0267 20.6734 10.0364C20.7259 10.0631 20.7687 10.1054 20.7957 10.1573C20.8772 10.3056 20.865 10.4248 20.759 10.5151C20.7425 10.5295 20.7302 10.5481 20.7235 10.5688C20.7168 10.5896 20.7159 10.6117 20.7209 10.6327C20.726 10.6537 20.7368 10.6728 20.7521 10.6879C20.7675 10.7029 20.7868 10.7134 20.8079 10.7181ZM20.177 10.5513C20.2683 10.5449 20.349 10.5143 20.4191 10.4595C20.4443 10.4393 20.4654 10.4145 20.4809 10.3867C20.4964 10.3589 20.506 10.3287 20.509 10.2981C20.512 10.2675 20.5083 10.2372 20.4983 10.2091C20.4883 10.1811 20.4721 10.156 20.4509 10.1355C20.3759 10.0614 20.2511 10.1363 20.0767 10.3604C20.0626 10.3782 20.0541 10.3997 20.052 10.4223C20.0499 10.4448 20.0544 10.4675 20.065 10.4876C20.0755 10.5077 20.0917 10.5244 20.1115 10.5357C20.1314 10.547 20.1541 10.5524 20.177 10.5513ZM16.3814 11.0469L16.061 10.8656C16.0423 10.8545 16.0205 10.8496 15.9988 10.8516C15.9771 10.8536 15.9566 10.8623 15.9402 10.8766C15.9239 10.8909 15.9125 10.9099 15.9079 10.931C15.9032 10.952 15.9054 10.974 15.9143 10.9937C16.0007 11.1952 16.1523 11.2572 16.3691 11.1799C16.3829 11.1755 16.395 11.1673 16.404 11.1562C16.413 11.1451 16.4185 11.1316 16.4198 11.1174C16.4211 11.1032 16.4181 11.089 16.4113 11.0764C16.4045 11.0639 16.3941 11.0536 16.3814 11.0469ZM15.386 11.2766C15.3175 11.2556 15.2613 11.2508 15.2173 11.2621C15.2055 11.2657 15.1972 11.2733 15.1934 11.284C15.1896 11.2946 15.1905 11.3078 15.196 11.322C15.2014 11.3362 15.2112 11.3506 15.2241 11.3636C15.2371 11.3766 15.2525 11.3875 15.2686 11.395C15.311 11.4144 15.3485 11.42 15.3811 11.412C15.3963 11.4085 15.41 11.4002 15.4199 11.3883C15.4299 11.3764 15.4356 11.3616 15.4362 11.3461C15.4367 11.3307 15.4321 11.3155 15.423 11.3029C15.414 11.2904 15.4009 11.2811 15.386 11.2766Z" fill="#2562FF"/>
<path d="M20.759 10.5151C20.865 10.4248 20.8772 10.3056 20.7957 10.1573C20.7687 10.1054 20.7259 10.0631 20.6734 10.0364C20.6539 10.0267 20.6384 10.0219 20.627 10.0219C20.614 10.0218 20.6012 10.0185 20.5898 10.0123C20.5784 10.0061 20.5688 9.99724 20.5618 9.98645C20.5547 9.97566 20.5505 9.9633 20.5495 9.9505C20.5485 9.9377 20.5508 9.92485 20.556 9.91312C20.6017 9.80997 20.6775 9.75114 20.7835 9.73664C20.8108 9.73239 20.8388 9.73695 20.8631 9.7496C20.8874 9.76226 20.9066 9.78232 20.918 9.80675L21.2237 10.4861C21.2346 10.511 21.2394 10.5382 21.2377 10.5654C21.2359 10.5925 21.2277 10.6189 21.2136 10.6423C21.1995 10.6656 21.1799 10.6854 21.1566 10.6998C21.1333 10.7143 21.1068 10.723 21.0794 10.7254C20.9604 10.7351 20.8699 10.7326 20.8079 10.7181C20.7868 10.7134 20.7675 10.7029 20.7521 10.6879C20.7368 10.6728 20.726 10.6537 20.7209 10.6327C20.7159 10.6117 20.7168 10.5896 20.7235 10.5688C20.7302 10.5481 20.7425 10.5295 20.759 10.5151Z" fill="#2562FF"/>
<path d="M20.177 10.5513C20.1541 10.5524 20.1314 10.547 20.1115 10.5357C20.0917 10.5244 20.0755 10.5077 20.065 10.4876C20.0544 10.4675 20.0499 10.4448 20.052 10.4223C20.0541 10.3997 20.0626 10.3782 20.0767 10.3604C20.2511 10.1363 20.3759 10.0614 20.4509 10.1355C20.4721 10.156 20.4883 10.1811 20.4983 10.2091C20.5083 10.2372 20.512 10.2675 20.509 10.2981C20.506 10.3287 20.4964 10.3589 20.4809 10.3867C20.4654 10.4145 20.4443 10.4393 20.4191 10.4595C20.349 10.5143 20.2683 10.5449 20.177 10.5513Z" fill="#2562FF"/>
<path d="M16.3814 11.0469C16.3941 11.0536 16.4045 11.0639 16.4113 11.0764C16.4181 11.089 16.4211 11.1032 16.4198 11.1174C16.4185 11.1316 16.413 11.1451 16.404 11.1562C16.395 11.1673 16.3829 11.1755 16.3691 11.1799C16.1523 11.2572 16.0007 11.1952 15.9143 10.9937C15.9054 10.974 15.9032 10.952 15.9079 10.931C15.9125 10.9099 15.9239 10.8909 15.9402 10.8766C15.9566 10.8623 15.9771 10.8536 15.9988 10.8516C16.0205 10.8496 16.0423 10.8545 16.061 10.8656L16.3814 11.0469Z" fill="#2562FF"/>
<path d="M15.3811 11.412C15.3485 11.42 15.311 11.4144 15.2686 11.395C15.2525 11.3875 15.2371 11.3766 15.2241 11.3636C15.2112 11.3506 15.2014 11.3362 15.196 11.322C15.1905 11.3078 15.1896 11.2946 15.1934 11.284C15.1972 11.2733 15.2055 11.2657 15.2173 11.2621C15.2613 11.2508 15.3175 11.2556 15.386 11.2766C15.4009 11.2811 15.414 11.2904 15.423 11.3029C15.4321 11.3155 15.4367 11.3307 15.4362 11.3461C15.4356 11.3616 15.4299 11.3764 15.4199 11.3883C15.41 11.4002 15.3963 11.4085 15.3811 11.412Z" fill="#2562FF"/>
<path d="M10.0326 26.792C10.2168 25.8589 10.0472 25.1554 9.52386 24.6816C8.76083 23.9878 7.4671 23.9926 6.73586 24.7348C6.1538 25.3246 6.0144 26.0418 6.31766 26.8863C6.76521 28.1265 8.53339 28.4553 9.50919 27.5729C9.55241 27.5339 9.6062 27.5086 9.66343 27.5004C9.72065 27.4922 9.77859 27.5015 9.82956 27.527C12.1725 28.6793 14.5594 29.1555 16.9903 28.9557C23.5715 28.4118 28.788 23.0208 28.9934 16.4573C29.0635 14.2477 28.5736 12.1163 27.5236 10.063C27.3133 9.65364 27.0687 9.28054 26.7899 8.9437C26.7663 8.90309 26.7309 8.87047 26.6882 8.85013C26.6456 8.82979 26.5977 8.82269 26.5509 8.82975C26.504 8.83681 26.4605 8.85771 26.4259 8.88969C26.3913 8.92168 26.3673 8.96326 26.357 9.00897L26.3448 9.06216C26.3321 9.12461 26.3416 9.18879 26.3717 9.24347C26.719 9.87363 26.9073 10.2177 26.9366 10.2757C32.4026 21.1206 21.2897 32.3982 10.1499 27.0217C10.1077 27.0009 10.0734 26.9673 10.0522 26.9258C10.031 26.8844 10.0241 26.8374 10.0326 26.792Z" fill="#2562FF"/>
</svg>
